<svg xmlns="http://www.w3.org/2000/svg" xmlns:xlink="http://www.w3.org/1999/xlink" xmlns:lucid="lucid" width="1708.4" height="1276.55"><g transform="translate(-89.33138959588848 -12)" lucid:page-tab-id="0_0"><path d="M0 0h1870.4v1323.2H0z" fill="#fff"/><path d="M330.58 72c-122.2 0-221.25 99.06-221.25 221.25V957c0 122.2 99.06 221.26 221.25 221.26h1225.9c122.2 0 221.26-99.06 221.26-221.25V293.26c0-122.2-99.06-221.25-221.26-221.25z" stroke="#000" stroke-width="2" fill="#fff"/><path d="M949.87 52c0 11.05-8.96 20-20 20-11.05 0-20-8.95-20-20s8.95-20 20-20c11.04 0 20 8.95 20 20z" stroke="#000" stroke-width="2"/><path d="M929.2 73.92V174.5" stroke="#000" stroke-width="2" fill="none"/><path d="M929.82 73h.38v.95h-2V72.8z"/><path d="M929.2 189.76l-4.64-14.26h9.28zM372.53 194h1113.34v6.67H372.53z" stroke="#000" stroke-width="2"/><path d="M643.25 202.67v100.5" stroke="#000" stroke-width="2" fill="none"/><path d="M644.25 202.7h-2v-1.03h2z"/><path d="M643.25 318.43l-4.63-14.27h9.27z" stroke="#000" stroke-width="2"/><path d="M943.53 202.67v100.65" stroke="#000" stroke-width="2" fill="none"/><path d="M944.53 202.7h-2v-1.03h2z"/><path d="M943.53 318.58l-4.63-14.26h9.27z" stroke="#000" stroke-width="2"/><path d="M1203.87 202.67v100.5" stroke="#000" stroke-width="2" fill="none"/><path d="M1204.87 202.7h-2v-1.03h2z"/><path d="M1203.87 318.43l-4.64-14.27h9.27z" stroke="#000" stroke-width="2"/><path d="M1411.2 202.67v100.5" stroke="#000" stroke-width="2" fill="none"/><path d="M1412.2 202.7h-2v-1.03h2z"/><path d="M1411.2 318.43l-4.64-14.27h9.28z" stroke="#000" stroke-width="2"/><path d="M579.25 322.67c-8.84 0-16 7.16-16 16v48c0 8.83 7.16 16 16 16h128c8.84 0 16-7.17 16-16v-48c0-8.84-7.16-16-16-16z" stroke="#000" stroke-width="2" fill="#fff"/><use xlink:href="#a" transform="matrix(1,0,0,1,571.2514720106756,330.6666666666667) translate(3.125 35.6)"/><use xlink:href="#b" transform="matrix(1,0,0,1,571.2514720106756,330.6666666666667) translate(8.125 35.6)"/><use xlink:href="#c" transform="matrix(1,0,0,1,571.2514720106756,330.6666666666667) translate(56.075 35.6)"/><use xlink:href="#d" transform="matrix(1,0,0,1,571.2514720106756,330.6666666666667) translate(92.975 35.6)"/><path d="M879.55 322.82c-8.84 0-16.02 7.17-16.02 16.02v48.06c0 8.85 7.18 16.02 16.02 16.02h127.96c8.86 0 16.03-7.17 16.03-16.02v-48.06c0-8.85-7.17-16.02-16.02-16.02z" stroke="#000" stroke-width="2" fill="#fff"/><use xlink:href="#e" transform="matrix(1,0,0,1,871.5333333333334,330.8190593308785) translate(27.14999999999999 36.1)"/><use xlink:href="#f" transform="matrix(1,0,0,1,871.5333333333334,330.8190593308785) translate(64.04999999999998 36.1)"/><path d="M1139.87 322.67c-8.84 0-16 7.16-16 16v48c0 8.83 7.16 16 16 16h128c8.83 0 16-7.17 16-16v-48c0-8.84-7.17-16-16-16z" stroke="#000" stroke-width="2" fill="#fff"/><use xlink:href="#g" transform="matrix(1,0,0,1,1131.8666666666668,330.6666666666667) translate(6.099999999999994 24.799999999999997)"/><use xlink:href="#h" transform="matrix(1,0,0,1,1131.8666666666668,330.6666666666667) translate(64.95 24.799999999999997)"/><use xlink:href="#i" transform="matrix(1,0,0,1,1131.8666666666668,330.6666666666667) translate(107.9 24.799999999999997)"/><use xlink:href="#j" transform="matrix(1,0,0,1,1131.8666666666668,330.6666666666667) translate(52.4 46.4)"/><path d="M1347.2 322.67c-8.84 0-16 7.16-16 16v48c0 8.83 7.16 16 16 16h128c8.84 0 16-7.17 16-16v-48c0-8.84-7.16-16-16-16z" stroke="#000" stroke-width="2" fill="#fff"/><use xlink:href="#k" transform="matrix(1,0,0,1,1339.1999999999998,330.6666666666667) translate(12.574999999999996 35.6)"/><use xlink:href="#l" transform="matrix(1,0,0,1,1339.1999999999998,330.6666666666667) translate(81.475 35.6)"/><path d="M944.53 463.77h-2v-9.87h2zm.34-31.47h-2v-27.38h2z"/><path d="M944.87 404.95h-2v-1.03h2zM943.53 479.04l-4.63-14.27h9.27z"/><path d="M943.53 482.27l-6-18.5h12.02zm-3.26-16.5l3.26 10.03 3.26-10.03z"/><use xlink:href="#m" transform="matrix(1,0,0,1,840.3499948880108,432.29639397658974) translate(0 14.4)"/><use xlink:href="#n" transform="matrix(1,0,0,1,840.3499948880108,432.29639397658974) translate(13.95 14.4)"/><use xlink:href="#o" transform="matrix(1,0,0,1,840.3499948880108,432.29639397658974) translate(43.95 14.4)"/><use xlink:href="#p" transform="matrix(1,0,0,1,840.3499948880108,432.29639397658974) translate(117.9 14.4)"/><use xlink:href="#q" transform="matrix(1,0,0,1,840.3499948880108,432.29639397658974) translate(135.85 14.4)"/><path d="M943.53 483.7l20 20-20 20.04-20-20.03z" stroke="#000" stroke-width="2" fill="#fff"/><path d="M843.65 502.86v11.8h.88v19.88h-2v-31.68zm77.64.03v2l-48.3-.03v-2z"/><path d="M922.94 502.9l-.82.8 1.17 1.2h-2.03v-2zM843.53 549.8l-4.63-14.26h9.27z"/><path d="M843.53 553.04l-6-18.5h12.02zm-3.26-16.5l3.26 10.03 3.26-10.03z"/><use xlink:href="#r" transform="matrix(1,0,0,1,843.6485418938132,493.0676552067414) translate(0 14.4)"/><path d="M779.55 554.04c-8.84 0-16.02 7.18-16.02 16.02v48.06c0 8.85 7.18 16.02 16.02 16.02H907.5c8.86 0 16.03-7.17 16.03-16.02v-48.06c0-8.84-7.17-16.02-16.02-16.02z" stroke="#000" stroke-width="2" fill="#fff"/><use xlink:href="#s" transform="matrix(1,0,0,1,771.533333333333,562.0432407880892) translate(11.575000000000003 25.299999999999997)"/><use xlink:href="#t" transform="matrix(1,0,0,1,771.533333333333,562.0432407880892) translate(66.525 25.299999999999997)"/><use xlink:href="#u" transform="matrix(1,0,0,1,771.533333333333,562.0432407880892) translate(107.425 25.299999999999997)"/><use xlink:href="#v" transform="matrix(1,0,0,1,771.533333333333,562.0432407880892) translate(58.025 46.9)"/><path d="M1086.53 534.54h-2V504.7h-49.98v-2h51.98zM965.95 504.7v-2h45.65v2z"/><path d="M965.97 504.7h-2.02l1-1-1-1h2.02zM1085.53 549.8l-4.63-14.26h9.27z"/><path d="M1085.53 553.04l-6-18.5h12.02zm-3.26-16.5l3.26 10.03 3.26-10.03z"/><use xlink:href="#w" transform="matrix(1,0,0,1,1011.5971841180055,492.9132659558224) translate(0 14.4)"/><path d="M1021.55 554.04c-8.84 0-16.02 7.18-16.02 16.02v48.06c0 8.85 7.18 16.02 16.02 16.02h127.96c8.86 0 16.03-7.17 16.03-16.02v-48.06c0-8.84-7.17-16.02-16.02-16.02z" stroke="#000" stroke-width="2" fill="#fff"/><use xlink:href="#x" transform="matrix(1,0,0,1,1013.5333333333333,562.0432407880892) translate(35.55 25.299999999999997)"/><use xlink:href="#y" transform="matrix(1,0,0,1,1013.5333333333333,562.0432407880892) translate(72.55 25.299999999999997)"/><use xlink:href="#z" transform="matrix(1,0,0,1,1013.5333333333333,562.0432407880892) translate(35.55 46.9)"/><path d="M1263.87 548.13l20 20-20 20-20-20z" stroke="#000" stroke-width="2" fill="#fff"/><path d="M1264.87 617.22h-2v-26.67h2z"/><path d="M1264.87 590.57h-2v-2.02l1 1 1-1zM1263.87 649.36l-3.43-10.54h6.85z"/><path d="M1263.87 652.6l-4.48-13.78h2.1l2.37 7.3 2.37-7.3h2.1z"/><use xlink:href="#r" transform="matrix(1,0,0,1,1249.1916666666668,617.2245090625383) translate(0 14.4)"/><path d="M1199.87 653.6c-8.84 0-16 7.16-16 16v48c0 8.84 7.16 16 16 16h128c8.83 0 16-7.16 16-16v-48c0-8.84-7.17-16-16-16z" stroke="#000" stroke-width="2" fill="#fff"/><use xlink:href="#A" transform="matrix(1,0,0,1,1191.8666666666668,661.5999999998603) translate(17.549999999999997 24.799999999999997)"/><use xlink:href="#h" transform="matrix(1,0,0,1,1191.8666666666668,661.5999999998603) translate(53.5 24.799999999999997)"/><use xlink:href="#i" transform="matrix(1,0,0,1,1191.8666666666668,661.5999999998603) translate(96.45 24.799999999999997)"/><use xlink:href="#j" transform="matrix(1,0,0,1,1191.8666666666668,661.5999999998603) translate(52.4 46.4)"/><path d="M1412.2 493.68h-2v-4.6h2zm0-26.2h-2v-62.8h2z"/><path d="M1412.2 404.7h-2v-1.03h2zM1411.2 508.95l-4.64-14.27h9.28z"/><path d="M1411.2 512.2l-6-18.52h12zm-3.26-16.52l3.26 10.03 3.26-10.02z"/><use xlink:href="#B" transform="matrix(1,0,0,1,1295.8249999999998,467.4851450504324) translate(0 14.4)"/><use xlink:href="#n" transform="matrix(1,0,0,1,1295.8249999999998,467.4851450504324) translate(15 14.4)"/><use xlink:href="#C" transform="matrix(1,0,0,1,1295.8249999999998,467.4851450504324) translate(45 14.4)"/><use xlink:href="#D" transform="matrix(1,0,0,1,1295.8249999999998,467.4851450504324) translate(98.9 14.4)"/><use xlink:href="#p" transform="matrix(1,0,0,1,1295.8249999999998,467.4851450504324) translate(173.85000000000002 14.4)"/><use xlink:href="#E" transform="matrix(1,0,0,1,1295.8249999999998,467.4851450504324) translate(191.8 14.4)"/><path d="M1411.2 513.6l20 20-20 20-20-20z" stroke="#000" stroke-width="2" fill="#fff"/><path d="M1412.2 977.16h-2V786.14h2zm0-212.62h-2V556h2z"/><path d="M1412.2 556.04h-2V554l1 1 1-1zM1411.2 992.43l-4.64-14.27h9.28z"/><path d="M1411.2 995.67l-6-18.5h12zm-3.26-16.5l3.26 10.02 3.26-10.04z"/><use xlink:href="#r" transform="matrix(1,0,0,1,1396.5249999999999,764.5404401144888) translate(0 14.4)"/><path d="M843.53 636.14V754.3h60.1" stroke="#000" stroke-width="2" fill="none"/><path d="M844.53 636.17h-2v-1.03h2z"/><path d="M918.88 754.3l-14.26 4.63v-9.27z" stroke="#000" stroke-width="2"/><path d="M1085.53 636.14V754.3H983.45" stroke="#000" stroke-width="2" fill="none"/><path d="M1086.53 636.17h-2v-1.03h2z"/><path d="M968.18 754.3l14.27-4.64v9.27z" stroke="#000" stroke-width="2"/><path d="M943.53 734.27l20 20.03-20 20.02-20-20.02z" stroke="#000" stroke-width="2" fill="#fff"/><path d="M943.53 776.74v200.42" stroke="#000" stroke-width="2" fill="none"/><path d="M943.53 775.74l1-1v2.02h-2v-2.03z"/><path d="M943.53 992.43l-4.63-14.27h9.27zM377.87 996.67H1491.2v6.66H377.87z" stroke="#000" stroke-width="2"/><path d="M934.53 1005.33v62.86" stroke="#000" stroke-width="2" fill="none"/><path d="M935.53 1005.36h-2v-1.03h2z"/><path d="M934.53 1083.46l-4.63-14.27h9.27z" stroke="#000" stroke-width="2"/><path d="M870.53 1087.7c-8.83 0-16 7.15-16 16v48c0 8.83 7.17 16 16 16h128c8.84 0 16-7.17 16-16v-48c0-8.85-7.16-16-16-16z" stroke="#000" stroke-width="2" fill="#fff"/><use xlink:href="#F" transform="matrix(1,0,0,1,862.5333333333333,1095.6915491213217) translate(51.5 35.6)"/><path d="M422.87 313.02h-2V277.4h2zm0-57.23h-2v-53.13h2z"/><path d="M422.87 202.7h-2v-1.03h2zM421.87 328.28l-4.64-14.26h9.27z"/><path d="M421.87 331.52l-6.02-18.5h12.03zm-3.26-16.5l3.27 10.03 3.26-10.03z"/><use xlink:href="#B" transform="matrix(1,0,0,1,339.9666666666667,255.79289338550723) translate(0 14.4)"/><use xlink:href="#G" transform="matrix(1,0,0,1,339.9666666666667,255.79289338550723) translate(15 14.4)"/><use xlink:href="#p" transform="matrix(1,0,0,1,339.9666666666667,255.79289338550723) translate(81.9 14.4)"/><use xlink:href="#H" transform="matrix(1,0,0,1,339.9666666666667,255.79289338550723) translate(99.85000000000001 14.4)"/><path d="M312.55 353.93h-28.58v70.3h-2v-72.3h30.58zm86.9 0H341.9v-2h57.55z"/><path d="M400.45 352.93l1 1h-2.02v-2h2.02zM282.97 439.5l-4.64-14.26h9.27z"/><path d="M282.97 442.74l-6-18.5h12zm-3.26-16.5l3.27 10.03 3.26-10.03z"/><use xlink:href="#r" transform="matrix(1,0,0,1,312.5495513558667,342.1333333333876) translate(0 14.4)"/><path/><path/><path d="M282.97 549.4l-1.1-3.38h2.2z"/><path d="M282.97 552.63l-2.15-6.6h2.1l.05.13.05-.14h2.1z"/><use xlink:href="#B" transform="matrix(1,0,0,1,122.64461068794063,524.4172016078954) translate(0 14.4)"/><use xlink:href="#n" transform="matrix(1,0,0,1,122.64461068794063,524.4172016078954) translate(15 14.4)"/><use xlink:href="#I" transform="matrix(1,0,0,1,122.64461068794063,524.4172016078954) translate(45 14.4)"/><use xlink:href="#J" transform="matrix(1,0,0,1,122.64461068794063,524.4172016078954) translate(84.95 14.4)"/><use xlink:href="#K" transform="matrix(1,0,0,1,122.64461068794063,524.4172016078954) translate(155.85000000000002 14.4)"/><use xlink:href="#n" transform="matrix(1,0,0,1,122.64461068794063,524.4172016078954) translate(192.75000000000003 14.4)"/><use xlink:href="#L" transform="matrix(1,0,0,1,122.64461068794063,524.4172016078954) translate(222.75000000000003 14.4)"/><use xlink:href="#M" transform="matrix(1,0,0,1,122.64461068794063,524.4172016078954) translate(246.75000000000003 14.4)"/><path d="M421.87 332.93l20 20-20 20-20-20zM282.97 554.04l20 20-20 20-20-20zM218.97 443.74c-8.84 0-16 7.16-16 16v48c0 8.84 7.16 16 16 16h128c8.84 0 16-7.16 16-16v-48c0-8.84-7.16-16-16-16z" stroke="#000" stroke-width="2" fill="#fff"/><use xlink:href="#g" transform="matrix(1,0,0,1,210.96961068794064,451.7384548811059) translate(8.599999999999994 35.6)"/><use xlink:href="#N" transform="matrix(1,0,0,1,210.96961068794064,451.7384548811059) translate(67.45 35.6)"/><path d="M297.87 693.18c-8.84 0-16 7.16-16 16v48c0 8.83 7.16 16 16 16h128c8.83 0 16-7.17 16-16v-48c0-8.84-7.17-16-16-16z" stroke="#000" stroke-width="2" fill="#fff"/><use xlink:href="#s" transform="matrix(1,0,0,1,289.86666666670556,701.1758458333823) translate(10.549999999999997 35.6)"/><use xlink:href="#N" transform="matrix(1,0,0,1,289.86666666670556,701.1758458333823) translate(65.5 35.6)"/><path d="M222.56 891.3h159.4v2h-161.4V699.17h2zm38-316.26h-38v102.52h-2V573.04h40z"/><path d="M261.56 574.04l1 1h-2.03v-2h2.03zM397.22 892.3l-14.27 4.64v-9.27z"/><path d="M400.45 892.3l-18.5 6.02V886.3zm-16.5 3.27l10.03-3.26-10.03-3.25z"/><use xlink:href="#r" transform="matrix(1,0,0,1,206.88039712556753,677.5606645615339) translate(0 14.4)"/><path d="M421.87 872.3l20 20-20 20-20-20z" stroke="#000" stroke-width="2" fill="#fff"/><path d="M421.87 914.72v62.44" stroke="#000" stroke-width="2" fill="none"/><path d="M422.87 914.75h-2v-2.03l1 1 1-1z"/><path d="M421.87 992.43l-4.64-14.27h9.27z" stroke="#000" stroke-width="2"/><path d="M317.33 642.82v30.85h-2v-28.85h-4.2v-2zm-29.16 0v2h-6.2v-48.36h2v46.36z"/><path d="M283.97 596.48h-2v-2.02l1 1 1-1zM316.33 688.94l-4.64-14.27h9.26z"/><path d="M316.33 692.18l-6-18.5h12zm-3.26-16.5l3.26 10.02 3.26-10.03z"/><use xlink:href="#w" transform="matrix(1,0,0,1,288.1745018784715,633.0166500919223) translate(0 14.4)"/><path d="M484.28 653.18h-65.9v20.5h-2v-22.5h65.9V432.7h2zm0-242.07h-2v-57.17h-38v-2h40z"/><path d="M444.3 353.93h-2.02l1-1-1-1h2.03zM417.38 688.94l-4.64-14.27H422z"/><path d="M417.38 692.18l-6-18.5h12zm-3.26-16.5l3.26 10.02 3.26-10.03z"/><use xlink:href="#w" transform="matrix(1,0,0,1,471.8058802290398,411.11267859881605) translate(0 14.4)"/><path d="M361.87 775.18v39h121.4v78.13h-21.5" stroke="#000" stroke-width="2" fill="none"/><path d="M362.87 775.2h-2v-1.02h2z"/><path d="M446.52 892.3l14.26-4.63v9.27z" stroke="#000" stroke-width="2"/><path d="M262.97 102.44h240v63.86h-240z" stroke="#000" stroke-opacity="0" stroke-width="2" fill="#fff" fill-opacity="0"/><use xlink:href="#O" transform="matrix(1,0,0,1,267.96961068792734,107.43816724956656) translate(51.46975308641976 17.955555555555552)"/><use xlink:href="#P" transform="matrix(1,0,0,1,267.96961068792734,107.43816724956656) translate(97.60555555555555 17.955555555555552)"/><use xlink:href="#Q" transform="matrix(1,0,0,1,267.96961068792734,107.43816724956656) translate(115 44.888888888888886)"/><path d="M1197.64 474.2h67.23v54.02h-2V476.2h-67.23v-17.94h2zm0-37.54h-2v-32h2z"/><path d="M1197.64 404.7h-2v-1.03h2zM1263.87 543.48l-4.64-14.26h9.27z"/><path d="M1263.87 546.72l-6.02-18.5h12.03zm-3.26-16.5l3.27 10.03 3.26-10.03z"/><use xlink:href="#B" transform="matrix(1,0,0,1,1064.7381581032037,436.6564524597047) translate(0 14.4)"/><use xlink:href="#I" transform="matrix(1,0,0,1,1064.7381581032037,436.6564524597047) translate(15 14.4)"/><use xlink:href="#R" transform="matrix(1,0,0,1,1064.7381581032037,436.6564524597047) translate(54.95 14.4)"/><use xlink:href="#S" transform="matrix(1,0,0,1,1064.7381581032037,436.6564524597047) translate(97.9 14.4)"/><use xlink:href="#T" transform="matrix(1,0,0,1,1064.7381581032037,436.6564524597047) translate(117.9 14.4)"/><use xlink:href="#n" transform="matrix(1,0,0,1,1064.7381581032037,436.6564524597047) translate(181.9 14.4)"/><use xlink:href="#U" transform="matrix(1,0,0,1,1064.7381581032037,436.6564524597047) translate(211.9 14.4)"/><path d="M1372 866.13h-68.22v-2H1370V627.8h2zm0-259.92h-2v-37.07h-83.72v-2H1372z"/><path d="M1286.3 569.13h-2.02l1-1-1-1h2.03zM1302.78 869.77l-14.26-4.64 14.26-4.63z"/><path d="M1303.78 871.15l-18.5-6.02 18.5-6zm-12.03-6.02l10.03 3.26v-6.53z"/><g><use xlink:href="#w" transform="matrix(1,0,0,1,1359.5210004990752,606.214261708707) translate(0 14.4)"/></g><path d="M1263.87 845.13l20 20-20 20-20-20z" stroke="#000" stroke-width="2" fill="#fff"/><path d="M1263.87 735.6v89.62" stroke="#000" stroke-width="2" fill="none"/><path d="M1264.87 735.63h-2v-1.03h2z"/><path d="M1263.87 840.48l-4.64-14.26h9.27z" stroke="#000" stroke-width="2"/><path d="M1263.87 887.55v89.6" stroke="#000" stroke-width="2" fill="none"/><path d="M1264.87 887.57h-2v-2.02l1 1 1-1z"/><path d="M1263.87 992.43l-4.64-14.27h9.27z" stroke="#000" stroke-width="2"/><path d="M918.37 1169.7v39.34" stroke="#000" stroke-width="2" fill="none"/><path d="M919.37 1169.72h-2v-1.03h2z"/><path d="M918.37 1224.3l-4.64-14.26H923z" stroke="#000" stroke-width="2"/><path d="M938.37 1248.55c0 11.04-8.96 20-20 20-11.05 0-20-8.96-20-20 0-11.05 8.95-20 20-20 11.04 0 20 8.95 20 20z" stroke="#000" stroke-width="2" fill="#fff"/><path d="M930.37 1248.55c0 6.62-5.37 12-12 12s-12-5.38-12-12c0-6.63 5.37-12 12-12s12 5.37 12 12z" stroke="#000" stroke-width="2"/><path d="M583.97 528.63h-2V486.2h2zm60.28-64.03h-2v-59.93h2z"/><path d="M644.25 404.7h-2v-1.03h2zM582.97 543.9l-4.64-14.27h9.27z"/><path d="M582.97 547.13l-6-18.5h12zm-3.26-16.5l3.27 10.03 3.26-10.03z"/><g><use xlink:href="#B" transform="matrix(1,0,0,1,528.6855413493015,464.5999999999845) translate(0 14.4)"/><use xlink:href="#V" transform="matrix(1,0,0,1,528.6855413493015,464.5999999999845) translate(15 14.4)"/><use xlink:href="#W" transform="matrix(1,0,0,1,528.6855413493015,464.5999999999845) translate(49 14.4)"/><use xlink:href="#X" transform="matrix(1,0,0,1,528.6855413493015,464.5999999999845) translate(94 14.4)"/><use xlink:href="#Y" transform="matrix(1,0,0,1,528.6855413493015,464.5999999999845) translate(139.9 14.4)"/></g><path d="M1556.97 534.6H1433.6v-2h121.37v-72.14h2zm0-95.74h-2v-75.2h-44.27v-2h46.27z"/><path d="M1433.64 534.6h-2.03l1-1-1-1h2.04zM1509.7 367.3l-14.26-4.63 14.26-4.64z"/><path d="M1510.7 368.68l-18.5-6 18.5-6.03zm-12.03-6l10.03 3.25v-6.52z"/><g><use xlink:href="#w" transform="matrix(1,0,0,1,1544.4931560434413,438.85850193047094) translate(0 14.4)"/></g><path d="M518.97 548.13c-8.84 0-16 7.17-16 16v48c0 8.84 7.16 16 16 16h128c8.84 0 16-7.16 16-16v-48c0-8.83-7.16-16-16-16z" stroke="#000" stroke-width="2" fill="#fff"/><g><use xlink:href="#Z" transform="matrix(1,0,0,1,510.96961068792734,556.1333333333023) translate(8.100000000000001 35.6)"/><use xlink:href="#n" transform="matrix(1,0,0,1,510.96961068792734,556.1333333333023) translate(32.050000000000004 35.6)"/><use xlink:href="#aa" transform="matrix(1,0,0,1,510.96961068792734,556.1333333333023) translate(62.050000000000004 35.6)"/></g><path d="M680.32 424.67h33.83v370.65h-52.3v-2h50.3V426.67h-33.83v-22h2z"/><path d="M680.32 404.7h-2v-1.03h2zM660.84 798.96l-14.26-4.64 14.26-4.63z"/><path d="M661.84 800.33l-18.5-6 18.5-6.02zm-12.03-6l10.04 3.25v-6.52z"/><path d="M535.23 630.13v39h28.57v125.2H582" stroke="#000" stroke-width="2" fill="none"/><path d="M536.23 630.16h-2v-1.03h2z"/><path d="M597.28 794.32L583 798.96v-9.27z" stroke="#000" stroke-width="2"/><path d="M621.93 774.32l20 20-20 20-20-20z" stroke="#000" stroke-width="2" fill="#fff"/><path d="M621.93 816.73v160.43" stroke="#000" stroke-width="2" fill="none"/><path d="M622.93 816.76h-2v-2.03l1 1 1-1z"/><path d="M621.93 992.43l-4.64-14.27h9.26z" stroke="#000" stroke-width="2"/><defs><path d="M30 0v-248h187v28H63v79h144v27H63v87h162V0H30" id="ab"/><path d="M117-194c89-4 53 116 60 194h-32v-121c0-31-8-49-39-48C34-167 62-67 57 0H25l-1-190h30c1 10-1 24 2 32 11-22 29-35 61-36" id="ac"/><path d="M59-47c-2 24 18 29 38 22v24C64 9 27 4 27-40v-127H5v-23h24l9-43h21v43h35v23H59v120" id="ad"/><path d="M100-194c63 0 86 42 84 106H49c0 40 14 67 53 68 26 1 43-12 49-29l28 8c-11 28-37 45-77 45C44 4 14-33 15-96c1-61 26-98 85-98zm52 81c6-60-76-77-97-28-3 7-6 17-6 28h103" id="ae"/><path d="M114-163C36-179 61-72 57 0H25l-1-190h30c1 12-1 29 2 39 6-27 23-49 58-41v29" id="af"/><g id="b"><use transform="matrix(0.05,0,0,0.05,0,0)" xlink:href="#ab"/><use transform="matrix(0.05,0,0,0.05,12,0)" xlink:href="#ac"/><use transform="matrix(0.05,0,0,0.05,22,0)" xlink:href="#ad"/><use transform="matrix(0.05,0,0,0.05,27,0)" xlink:href="#ae"/><use transform="matrix(0.05,0,0,0.05,37,0)" xlink:href="#af"/></g><path d="M160-131c35 5 61 23 61 61C221 17 115-2 30 0v-248c76 3 177-17 177 60 0 33-19 50-47 57zm-97-11c50-1 110 9 110-42 0-47-63-36-110-37v79zm0 115c55-2 124 14 124-45 0-56-70-42-124-44v89" id="ag"/><path d="M24-231v-30h32v30H24zM24 0v-190h32V0H24" id="ah"/><path d="M85-194c31 0 48 13 60 33l-1-100h32l1 261h-30c-2-10 0-23-3-31C134-8 116 4 85 4 32 4 16-35 15-94c0-66 23-100 70-100zm9 24c-40 0-46 34-46 75 0 40 6 74 45 74 42 0 51-32 51-76 0-42-9-74-50-73" id="ai"/><g id="c"><use transform="matrix(0.05,0,0,0.05,0,0)" xlink:href="#ag"/><use transform="matrix(0.05,0,0,0.05,12,0)" xlink:href="#ah"/><use transform="matrix(0.05,0,0,0.05,15.949999999999998,0)" xlink:href="#af"/><use transform="matrix(0.05,0,0,0.05,21.9,0)" xlink:href="#ai"/></g><path d="M190 0L58-211 59 0H30v-248h39L202-35l-2-213h31V0h-41" id="aj"/><path d="M141-36C126-15 110 5 73 4 37 3 15-17 15-53c-1-64 63-63 125-63 3-35-9-54-41-54-24 1-41 7-42 31l-33-3c5-37 33-52 76-52 45 0 72 20 72 64v82c-1 20 7 32 28 27v20c-31 9-61-2-59-35zM48-53c0 20 12 33 32 33 41-3 63-29 60-74-43 2-92-5-92 41" id="ak"/><path d="M210-169c-67 3-38 105-44 169h-31v-121c0-29-5-50-35-48C34-165 62-65 56 0H25l-1-190h30c1 10-1 24 2 32 10-44 99-50 107 0 11-21 27-35 58-36 85-2 47 119 55 194h-31v-121c0-29-5-49-35-48" id="al"/><g id="d"><use transform="matrix(0.05,0,0,0.05,0,0)" xlink:href="#aj"/><use transform="matrix(0.05,0,0,0.05,12.950000000000001,0)" xlink:href="#ak"/><use transform="matrix(0.05,0,0,0.05,22.950000000000003,0)" xlink:href="#al"/><use transform="matrix(0.05,0,0,0.05,37.900000000000006,0)" xlink:href="#ae"/></g><g id="e"><use transform="matrix(0.05,0,0,0.05,0,0)" xlink:href="#ag"/><use transform="matrix(0.05,0,0,0.05,12,0)" xlink:href="#ah"/><use transform="matrix(0.05,0,0,0.05,15.949999999999998,0)" xlink:href="#af"/><use transform="matrix(0.05,0,0,0.05,21.9,0)" xlink:href="#ai"/></g><path d="M63-220v92h138v28H63V0H30v-248h175v28H63" id="am"/><path d="M24 0v-261h32V0H24" id="an"/><path d="M179-190L93 31C79 59 56 82 12 73V49c39 6 53-20 64-50L1-190h34L92-34l54-156h33" id="ao"/><g id="f"><use transform="matrix(0.05,0,0,0.05,0,0)" xlink:href="#am"/><use transform="matrix(0.05,0,0,0.05,10.950000000000001,0)" xlink:href="#ak"/><use transform="matrix(0.05,0,0,0.05,20.950000000000003,0)" xlink:href="#al"/><use transform="matrix(0.05,0,0,0.05,35.900000000000006,0)" xlink:href="#ah"/><use transform="matrix(0.05,0,0,0.05,39.85000000000001,0)" xlink:href="#an"/><use transform="matrix(0.05,0,0,0.05,43.80000000000001,0)" xlink:href="#ao"/></g><path d="M205 0l-28-72H64L36 0H1l101-248h38L239 0h-34zm-38-99l-47-123c-12 45-31 82-46 123h93" id="ap"/><path d="M84 4C-5 8 30-112 23-190h32v120c0 31 7 50 39 49 72-2 45-101 50-169h31l1 190h-30c-1-10 1-25-2-33-11 22-28 36-60 37" id="aq"/><path d="M100-194c62-1 85 37 85 99 1 63-27 99-86 99S16-35 15-95c0-66 28-99 85-99zM99-20c44 1 53-31 53-75 0-43-8-75-51-75s-53 32-53 75 10 74 51 75" id="ar"/><path d="M101-234c-31-9-42 10-38 44h38v23H63V0H32v-167H5v-23h27c-7-52 17-82 69-68v24" id="as"/><g id="g"><use transform="matrix(0.05,0,0,0.05,0,0)" xlink:href="#ap"/><use transform="matrix(0.05,0,0,0.05,12,0)" xlink:href="#aq"/><use transform="matrix(0.05,0,0,0.05,22,0)" xlink:href="#ad"/><use transform="matrix(0.05,0,0,0.05,27,0)" xlink:href="#ar"/><use transform="matrix(0.05,0,0,0.05,37,0)" xlink:href="#as"/><use transform="matrix(0.05,0,0,0.05,42,0)" xlink:href="#ah"/><use transform="matrix(0.05,0,0,0.05,45.95,0)" xlink:href="#an"/><use transform="matrix(0.05,0,0,0.05,49.900000000000006,0)" xlink:href="#an"/></g><path d="M30-248c118-7 216 8 213 122C240-48 200 0 122 0H30v-248zM63-27c89 8 146-16 146-99s-60-101-146-95v194" id="at"/><g id="h"><use transform="matrix(0.05,0,0,0.05,0,0)" xlink:href="#at"/><use transform="matrix(0.05,0,0,0.05,12.950000000000001,0)" xlink:href="#ak"/><use transform="matrix(0.05,0,0,0.05,22.950000000000003,0)" xlink:href="#ad"/><use transform="matrix(0.05,0,0,0.05,27.950000000000003,0)" xlink:href="#ae"/></g><g id="i"><use transform="matrix(0.05,0,0,0.05,0,0)" xlink:href="#ak"/><use transform="matrix(0.05,0,0,0.05,10,0)" xlink:href="#ac"/><use transform="matrix(0.05,0,0,0.05,20,0)" xlink:href="#ai"/></g><path d="M127-220V0H93v-220H8v-28h204v28h-85" id="au"/><g id="j"><use transform="matrix(0.05,0,0,0.05,0,0)" xlink:href="#au"/><use transform="matrix(0.05,0,0,0.05,10.3,0)" xlink:href="#ah"/><use transform="matrix(0.05,0,0,0.05,14.25,0)" xlink:href="#al"/><use transform="matrix(0.05,0,0,0.05,29.200000000000003,0)" xlink:href="#ae"/></g><path d="M212-179c-10-28-35-45-73-45-59 0-87 40-87 99 0 60 29 101 89 101 43 0 62-24 78-52l27 14C228-24 195 4 139 4 59 4 22-46 18-125c-6-104 99-153 187-111 19 9 31 26 39 46" id="av"/><path d="M115-194c55 1 70 41 70 98S169 2 115 4C84 4 66-9 55-30l1 105H24l-1-265h31l2 30c10-21 28-34 59-34zm-8 174c40 0 45-34 45-75s-6-73-45-74c-42 0-51 32-51 76 0 43 10 73 51 73" id="aw"/><g id="k"><use transform="matrix(0.05,0,0,0.05,0,0)" xlink:href="#av"/><use transform="matrix(0.05,0,0,0.05,12.950000000000001,0)" xlink:href="#ak"/><use transform="matrix(0.05,0,0,0.05,22.950000000000003,0)" xlink:href="#aw"/><use transform="matrix(0.05,0,0,0.05,32.95,0)" xlink:href="#ad"/><use transform="matrix(0.05,0,0,0.05,37.95,0)" xlink:href="#aq"/><use transform="matrix(0.05,0,0,0.05,47.95,0)" xlink:href="#af"/><use transform="matrix(0.05,0,0,0.05,53.900000000000006,0)" xlink:href="#ae"/></g><path d="M33 0v-248h34V0H33" id="ax"/><path d="M177-190C167-65 218 103 67 71c-23-6-38-20-44-43l32-5c15 47 100 32 89-28v-30C133-14 115 1 83 1 29 1 15-40 15-95c0-56 16-97 71-98 29-1 48 16 59 35 1-10 0-23 2-32h30zM94-22c36 0 50-32 50-73 0-42-14-75-50-75-39 0-46 34-46 75s6 73 46 73" id="ay"/><g id="l"><use transform="matrix(0.05,0,0,0.05,0,0)" xlink:href="#ax"/><use transform="matrix(0.05,0,0,0.05,5,0)" xlink:href="#al"/><use transform="matrix(0.05,0,0,0.05,19.950000000000003,0)" xlink:href="#ak"/><use transform="matrix(0.05,0,0,0.05,29.950000000000003,0)" xlink:href="#ay"/><use transform="matrix(0.05,0,0,0.05,39.95,0)" xlink:href="#ae"/></g><g id="m"><use transform="matrix(0.05,0,0,0.05,0,0)" xlink:href="#ah"/><use transform="matrix(0.05,0,0,0.05,3.95,0)" xlink:href="#as"/></g><path d="M106-169C34-169 62-67 57 0H25v-261h32l-1 103c12-21 28-36 61-36 89 0 53 116 60 194h-32v-121c2-32-8-49-39-48" id="az"/><g id="n"><use transform="matrix(0.05,0,0,0.05,0,0)" xlink:href="#ad"/><use transform="matrix(0.05,0,0,0.05,5,0)" xlink:href="#az"/><use transform="matrix(0.05,0,0,0.05,15,0)" xlink:href="#ae"/></g><path d="M96-169c-40 0-48 33-48 73s9 75 48 75c24 0 41-14 43-38l32 2c-6 37-31 61-74 61-59 0-76-41-82-99-10-93 101-131 147-64 4 7 5 14 7 22l-32 3c-4-21-16-35-41-35" id="aA"/><g id="o"><use transform="matrix(0.05,0,0,0.05,0,0)" xlink:href="#aA"/><use transform="matrix(0.05,0,0,0.05,9,0)" xlink:href="#ak"/><use transform="matrix(0.05,0,0,0.05,19,0)" xlink:href="#ad"/><use transform="matrix(0.05,0,0,0.05,24,0)" xlink:href="#ae"/><use transform="matrix(0.05,0,0,0.05,34,0)" xlink:href="#ay"/><use transform="matrix(0.05,0,0,0.05,44,0)" xlink:href="#ar"/><use transform="matrix(0.05,0,0,0.05,54,0)" xlink:href="#af"/><use transform="matrix(0.05,0,0,0.05,59.95,0)" xlink:href="#ao"/></g><path d="M135-143c-3-34-86-38-87 0 15 53 115 12 119 90S17 21 10-45l28-5c4 36 97 45 98 0-10-56-113-15-118-90-4-57 82-63 122-42 12 7 21 19 24 35" id="aB"/><g id="p"><use transform="matrix(0.05,0,0,0.05,0,0)" xlink:href="#ah"/><use transform="matrix(0.05,0,0,0.05,3.95,0)" xlink:href="#aB"/></g><path d="M108 0H70L1-190h34L89-25l56-165h34" id="aC"/><path d="M115-194c53 0 69 39 70 98 0 66-23 100-70 100C84 3 66-7 56-30L54 0H23l1-261h32v101c10-23 28-34 59-34zm-8 174c40 0 45-34 45-75 0-40-5-75-45-74-42 0-51 32-51 76 0 43 10 73 51 73" id="aD"/><g id="q"><use transform="matrix(0.05,0,0,0.05,0,0)" xlink:href="#ak"/><use transform="matrix(0.05,0,0,0.05,10,0)" xlink:href="#aC"/><use transform="matrix(0.05,0,0,0.05,19,0)" xlink:href="#ak"/><use transform="matrix(0.05,0,0,0.05,29,0)" xlink:href="#ah"/><use transform="matrix(0.05,0,0,0.05,32.95,0)" xlink:href="#an"/><use transform="matrix(0.05,0,0,0.05,36.900000000000006,0)" xlink:href="#ak"/><use transform="matrix(0.05,0,0,0.05,46.900000000000006,0)" xlink:href="#aD"/><use transform="matrix(0.05,0,0,0.05,56.900000000000006,0)" xlink:href="#an"/><use transform="matrix(0.05,0,0,0.05,60.85,0)" xlink:href="#ae"/></g><path d="M137-103V0h-34v-103L8-248h37l75 118 75-118h37" id="aE"/><g id="r"><use transform="matrix(0.05,0,0,0.05,0,0)" xlink:href="#aE"/><use transform="matrix(0.05,0,0,0.05,10.35,0)" xlink:href="#ae"/><use transform="matrix(0.05,0,0,0.05,20.35,0)" xlink:href="#aB"/></g><path d="M185-189c-5-48-123-54-124 2 14 75 158 14 163 119 3 78-121 87-175 55-17-10-28-26-33-46l33-7c5 56 141 63 141-1 0-78-155-14-162-118-5-82 145-84 179-34 5 7 8 16 11 25" id="aF"/><g id="s"><use transform="matrix(0.05,0,0,0.05,0,0)" xlink:href="#aF"/><use transform="matrix(0.05,0,0,0.05,12,0)" xlink:href="#ae"/><use transform="matrix(0.05,0,0,0.05,22,0)" xlink:href="#an"/><use transform="matrix(0.05,0,0,0.05,25.950000000000003,0)" xlink:href="#ae"/><use transform="matrix(0.05,0,0,0.05,35.95,0)" xlink:href="#aA"/><use transform="matrix(0.05,0,0,0.05,44.95,0)" xlink:href="#ad"/></g><g id="t"><use transform="matrix(0.05,0,0,0.05,0,0)" xlink:href="#as"/><use transform="matrix(0.05,0,0,0.05,5,0)" xlink:href="#af"/><use transform="matrix(0.05,0,0,0.05,10.95,0)" xlink:href="#ar"/><use transform="matrix(0.05,0,0,0.05,20.95,0)" xlink:href="#al"/></g><g id="u"><use transform="matrix(0.05,0,0,0.05,0,0)" xlink:href="#ad"/><use transform="matrix(0.05,0,0,0.05,5,0)" xlink:href="#az"/><use transform="matrix(0.05,0,0,0.05,15,0)" xlink:href="#ae"/></g><path d="M30 0v-248h33v221h125V0H30" id="aG"/><g id="v"><use transform="matrix(0.05,0,0,0.05,0,0)" xlink:href="#aG"/><use transform="matrix(0.05,0,0,0.05,10,0)" xlink:href="#ah"/><use transform="matrix(0.05,0,0,0.05,13.949999999999998,0)" xlink:href="#aB"/><use transform="matrix(0.05,0,0,0.05,22.95,0)" xlink:href="#ad"/></g><g id="w"><use transform="matrix(0.05,0,0,0.05,0,0)" xlink:href="#aj"/><use transform="matrix(0.05,0,0,0.05,12.950000000000001,0)" xlink:href="#ar"/></g><g id="x"><use transform="matrix(0.05,0,0,0.05,0,0)" xlink:href="#ap"/><use transform="matrix(0.05,0,0,0.05,12,0)" xlink:href="#ai"/><use transform="matrix(0.05,0,0,0.05,22,0)" xlink:href="#ai"/></g><path d="M206 0h-36l-40-164L89 0H53L-1-190h32L70-26l43-164h34l41 164 42-164h31" id="aH"/><g id="y"><use transform="matrix(0.05,0,0,0.05,0,0)" xlink:href="#aj"/><use transform="matrix(0.05,0,0,0.05,12.950000000000001,0)" xlink:href="#ae"/><use transform="matrix(0.05,0,0,0.05,22.950000000000003,0)" xlink:href="#aH"/></g><g id="z"><use transform="matrix(0.05,0,0,0.05,0,0)" xlink:href="#av"/><use transform="matrix(0.05,0,0,0.05,12.950000000000001,0)" xlink:href="#ak"/><use transform="matrix(0.05,0,0,0.05,22.950000000000003,0)" xlink:href="#ad"/><use transform="matrix(0.05,0,0,0.05,27.950000000000003,0)" xlink:href="#ae"/><use transform="matrix(0.05,0,0,0.05,37.95,0)" xlink:href="#ay"/><use transform="matrix(0.05,0,0,0.05,47.95,0)" xlink:href="#ar"/><use transform="matrix(0.05,0,0,0.05,57.95,0)" xlink:href="#af"/><use transform="matrix(0.05,0,0,0.05,63.900000000000006,0)" xlink:href="#ao"/></g><g id="A"><use transform="matrix(0.05,0,0,0.05,0,0)" xlink:href="#ab"/><use transform="matrix(0.05,0,0,0.05,12,0)" xlink:href="#ai"/><use transform="matrix(0.05,0,0,0.05,22,0)" xlink:href="#ah"/><use transform="matrix(0.05,0,0,0.05,25.950000000000003,0)" xlink:href="#ad"/></g><g id="B"><use transform="matrix(0.05,0,0,0.05,0,0)" xlink:href="#ax"/><use transform="matrix(0.05,0,0,0.05,5,0)" xlink:href="#as"/></g><g id="C"><use transform="matrix(0.05,0,0,0.05,0,0)" xlink:href="#ah"/><use transform="matrix(0.05,0,0,0.05,3.95,0)" xlink:href="#al"/><use transform="matrix(0.05,0,0,0.05,18.900000000000002,0)" xlink:href="#ak"/><use transform="matrix(0.05,0,0,0.05,28.900000000000002,0)" xlink:href="#ay"/><use transform="matrix(0.05,0,0,0.05,38.900000000000006,0)" xlink:href="#ae"/></g><g id="D"><use transform="matrix(0.05,0,0,0.05,0,0)" xlink:href="#aA"/><use transform="matrix(0.05,0,0,0.05,9,0)" xlink:href="#ak"/><use transform="matrix(0.05,0,0,0.05,19,0)" xlink:href="#aw"/><use transform="matrix(0.05,0,0,0.05,29,0)" xlink:href="#ad"/><use transform="matrix(0.05,0,0,0.05,34,0)" xlink:href="#aq"/><use transform="matrix(0.05,0,0,0.05,44,0)" xlink:href="#af"/><use transform="matrix(0.05,0,0,0.05,49.95,0)" xlink:href="#ae"/><use transform="matrix(0.05,0,0,0.05,59.95,0)" xlink:href="#ai"/></g><path d="M103-251c84 0 111 97 45 133-19 10-37 24-39 52H78c0-63 77-55 77-114 0-30-21-42-52-43-32 0-53 17-56 46l-32-2c7-45 34-72 88-72zM77 0v-35h34V0H77" id="aI"/><g id="E"><use transform="matrix(0.05,0,0,0.05,0,0)" xlink:href="#as"/><use transform="matrix(0.05,0,0,0.05,5,0)" xlink:href="#ah"/><use transform="matrix(0.05,0,0,0.05,8.95,0)" xlink:href="#ac"/><use transform="matrix(0.05,0,0,0.05,18.95,0)" xlink:href="#ae"/><use transform="matrix(0.05,0,0,0.05,28.950000000000003,0)" xlink:href="#aI"/></g><g id="F"><use transform="matrix(0.05,0,0,0.05,0,0)" xlink:href="#aF"/><use transform="matrix(0.05,0,0,0.05,12,0)" xlink:href="#ak"/><use transform="matrix(0.05,0,0,0.05,22,0)" xlink:href="#aC"/><use transform="matrix(0.05,0,0,0.05,31,0)" xlink:href="#ae"/></g><g id="G"><use transform="matrix(0.05,0,0,0.05,0,0)" xlink:href="#an"/><use transform="matrix(0.05,0,0,0.05,3.95,0)" xlink:href="#ar"/><use transform="matrix(0.05,0,0,0.05,13.949999999999998,0)" xlink:href="#aA"/><use transform="matrix(0.05,0,0,0.05,22.95,0)" xlink:href="#ak"/><use transform="matrix(0.05,0,0,0.05,32.95,0)" xlink:href="#ad"/><use transform="matrix(0.05,0,0,0.05,37.95,0)" xlink:href="#ah"/><use transform="matrix(0.05,0,0,0.05,41.900000000000006,0)" xlink:href="#ar"/><use transform="matrix(0.05,0,0,0.05,51.900000000000006,0)" xlink:href="#ac"/></g><g id="H"><use transform="matrix(0.05,0,0,0.05,0,0)" xlink:href="#ae"/><use transform="matrix(0.05,0,0,0.05,10,0)" xlink:href="#ac"/><use transform="matrix(0.05,0,0,0.05,20,0)" xlink:href="#ak"/><use transform="matrix(0.05,0,0,0.05,30,0)" xlink:href="#aD"/><use transform="matrix(0.05,0,0,0.05,40,0)" xlink:href="#an"/><use transform="matrix(0.05,0,0,0.05,43.95,0)" xlink:href="#ae"/><use transform="matrix(0.05,0,0,0.05,53.95,0)" xlink:href="#ai"/></g><g id="I"><use transform="matrix(0.05,0,0,0.05,0,0)" xlink:href="#aq"/><use transform="matrix(0.05,0,0,0.05,10,0)" xlink:href="#aB"/><use transform="matrix(0.05,0,0,0.05,19,0)" xlink:href="#ae"/><use transform="matrix(0.05,0,0,0.05,29,0)" xlink:href="#af"/></g><g id="J"><use transform="matrix(0.05,0,0,0.05,0,0)" xlink:href="#aB"/><use transform="matrix(0.05,0,0,0.05,9,0)" xlink:href="#ak"/><use transform="matrix(0.05,0,0,0.05,19,0)" xlink:href="#ad"/><use transform="matrix(0.05,0,0,0.05,24,0)" xlink:href="#ah"/><use transform="matrix(0.05,0,0,0.05,27.950000000000003,0)" xlink:href="#aB"/><use transform="matrix(0.05,0,0,0.05,36.95,0)" xlink:href="#as"/><use transform="matrix(0.05,0,0,0.05,41.95,0)" xlink:href="#ah"/><use transform="matrix(0.05,0,0,0.05,45.900000000000006,0)" xlink:href="#ae"/><use transform="matrix(0.05,0,0,0.05,55.900000000000006,0)" xlink:href="#ai"/></g><g id="K"><use transform="matrix(0.05,0,0,0.05,0,0)" xlink:href="#aH"/><use transform="matrix(0.05,0,0,0.05,12.950000000000001,0)" xlink:href="#ah"/><use transform="matrix(0.05,0,0,0.05,16.900000000000002,0)" xlink:href="#ad"/><use transform="matrix(0.05,0,0,0.05,21.900000000000002,0)" xlink:href="#az"/></g><g id="L"><use transform="matrix(0.05,0,0,0.05,0,0)" xlink:href="#aA"/><use transform="matrix(0.05,0,0,0.05,9,0)" xlink:href="#ar"/></g><g id="M"><use transform="matrix(0.05,0,0,0.05,0,0)" xlink:href="#ar"/><use transform="matrix(0.05,0,0,0.05,10,0)" xlink:href="#af"/><use transform="matrix(0.05,0,0,0.05,15.949999999999998,0)" xlink:href="#ai"/><use transform="matrix(0.05,0,0,0.05,25.950000000000003,0)" xlink:href="#ah"/><use transform="matrix(0.05,0,0,0.05,29.899999999999995,0)" xlink:href="#ac"/><use transform="matrix(0.05,0,0,0.05,39.9,0)" xlink:href="#ak"/><use transform="matrix(0.05,0,0,0.05,49.9,0)" xlink:href="#ad"/><use transform="matrix(0.05,0,0,0.05,54.900000000000006,0)" xlink:href="#ae"/><use transform="matrix(0.05,0,0,0.05,64.9,0)" xlink:href="#aB"/></g><g id="N"><use transform="matrix(0.05,0,0,0.05,0,0)" xlink:href="#aG"/><use transform="matrix(0.05,0,0,0.05,10,0)" xlink:href="#ar"/><use transform="matrix(0.05,0,0,0.05,20,0)" xlink:href="#aA"/><use transform="matrix(0.05,0,0,0.05,29,0)" xlink:href="#ak"/><use transform="matrix(0.05,0,0,0.05,39,0)" xlink:href="#ad"/><use transform="matrix(0.05,0,0,0.05,44,0)" xlink:href="#ah"/><use transform="matrix(0.05,0,0,0.05,47.95,0)" xlink:href="#ar"/><use transform="matrix(0.05,0,0,0.05,57.95,0)" xlink:href="#ac"/></g><g id="O"><use transform="matrix(0.06234567901234567,0,0,0.06234567901234567,0,0)" xlink:href="#ap"/><use transform="matrix(0.06234567901234567,0,0,0.06234567901234567,14.96296296296296,0)" xlink:href="#ai"/><use transform="matrix(0.06234567901234567,0,0,0.06234567901234567,27.432098765432094,0)" xlink:href="#ai"/></g><g id="P"><use transform="matrix(0.06234567901234567,0,0,0.06234567901234567,0,0)" xlink:href="#aF"/><use transform="matrix(0.06234567901234567,0,0,0.06234567901234567,14.96296296296296,0)" xlink:href="#ah"/><use transform="matrix(0.06234567901234567,0,0,0.06234567901234567,19.888271604938268,0)" xlink:href="#ay"/><use transform="matrix(0.06234567901234567,0,0,0.06234567901234567,32.3574074074074,0)" xlink:href="#az"/><use transform="matrix(0.06234567901234567,0,0,0.06234567901234567,44.82654320987653,0)" xlink:href="#ad"/><use transform="matrix(0.06234567901234567,0,0,0.06234567901234567,51.0611111111111,0)" xlink:href="#ah"/><use transform="matrix(0.06234567901234567,0,0,0.06234567901234567,55.98641975308641,0)" xlink:href="#ac"/><use transform="matrix(0.06234567901234567,0,0,0.06234567901234567,68.45555555555555,0)" xlink:href="#ay"/></g><g id="R"><use transform="matrix(0.05,0,0,0.05,0,0)" xlink:href="#aH"/><use transform="matrix(0.05,0,0,0.05,12.950000000000001,0)" xlink:href="#ak"/><use transform="matrix(0.05,0,0,0.05,22.950000000000003,0)" xlink:href="#ac"/><use transform="matrix(0.05,0,0,0.05,32.95,0)" xlink:href="#ad"/></g><g id="S"><use transform="matrix(0.05,0,0,0.05,0,0)" xlink:href="#ad"/><use transform="matrix(0.05,0,0,0.05,5,0)" xlink:href="#ar"/></g><g id="T"><use transform="matrix(0.05,0,0,0.05,0,0)" xlink:href="#aA"/><use transform="matrix(0.05,0,0,0.05,9,0)" xlink:href="#az"/><use transform="matrix(0.05,0,0,0.05,19,0)" xlink:href="#ak"/><use transform="matrix(0.05,0,0,0.05,29,0)" xlink:href="#ac"/><use transform="matrix(0.05,0,0,0.05,39,0)" xlink:href="#ay"/><use transform="matrix(0.05,0,0,0.05,49,0)" xlink:href="#ae"/></g><g id="U"><use transform="matrix(0.05,0,0,0.05,0,0)" xlink:href="#ai"/><use transform="matrix(0.05,0,0,0.05,10,0)" xlink:href="#ae"/><use transform="matrix(0.05,0,0,0.05,20,0)" xlink:href="#ad"/><use transform="matrix(0.05,0,0,0.05,25,0)" xlink:href="#ak"/><use transform="matrix(0.05,0,0,0.05,35,0)" xlink:href="#ah"/><use transform="matrix(0.05,0,0,0.05,38.95,0)" xlink:href="#an"/><use transform="matrix(0.05,0,0,0.05,42.900000000000006,0)" xlink:href="#aB"/></g><g id="V"><use transform="matrix(0.05,0,0,0.05,0,0)" xlink:href="#ao"/><use transform="matrix(0.05,0,0,0.05,9,0)" xlink:href="#ar"/><use transform="matrix(0.05,0,0,0.05,19,0)" xlink:href="#aq"/></g><g id="W"><use transform="matrix(0.05,0,0,0.05,0,0)" xlink:href="#ac"/><use transform="matrix(0.05,0,0,0.05,10,0)" xlink:href="#ae"/><use transform="matrix(0.05,0,0,0.05,20,0)" xlink:href="#ae"/><use transform="matrix(0.05,0,0,0.05,30,0)" xlink:href="#ai"/></g><g id="X"><use transform="matrix(0.05,0,0,0.05,0,0)" xlink:href="#al"/><use transform="matrix(0.05,0,0,0.05,14.950000000000001,0)" xlink:href="#ar"/><use transform="matrix(0.05,0,0,0.05,24.950000000000003,0)" xlink:href="#af"/><use transform="matrix(0.05,0,0,0.05,30.900000000000002,0)" xlink:href="#ae"/></g><g id="Y"><use transform="matrix(0.05,0,0,0.05,0,0)" xlink:href="#ah"/><use transform="matrix(0.05,0,0,0.05,3.95,0)" xlink:href="#ac"/><use transform="matrix(0.05,0,0,0.05,13.949999999999998,0)" xlink:href="#as"/><use transform="matrix(0.05,0,0,0.05,18.95,0)" xlink:href="#ar"/></g><g id="Z"><use transform="matrix(0.05,0,0,0.05,0,0)" xlink:href="#au"/><use transform="matrix(0.05,0,0,0.05,8.950000000000001,0)" xlink:href="#ar"/></g><path d="M266 0h-40l-56-210L115 0H75L2-248h35L96-30l15-64 43-154h32l59 218 59-218h35" id="aJ"/><path d="M143 0L79-87 56-68V0H24v-261h32v163l83-92h37l-77 82L181 0h-38" id="aK"/><g id="aa"><use transform="matrix(0.05,0,0,0.05,0,0)" xlink:href="#aJ"/><use transform="matrix(0.05,0,0,0.05,16.95,0)" xlink:href="#ah"/><use transform="matrix(0.05,0,0,0.05,20.9,0)" xlink:href="#aK"/><use transform="matrix(0.05,0,0,0.05,29.899999999999995,0)" xlink:href="#ah"/><use transform="matrix(0.05,0,0,0.05,33.85,0)" xlink:href="#aw"/><use transform="matrix(0.05,0,0,0.05,43.85,0)" xlink:href="#ak"/><use transform="matrix(0.05,0,0,0.05,53.85,0)" xlink:href="#ay"/><use transform="matrix(0.05,0,0,0.05,63.85,0)" xlink:href="#ae"/></g></defs></g></svg>