<svg xmlns="http://www.w3.org/2000/svg" xmlns:xlink="http://www.w3.org/1999/xlink" xmlns:lucid="lucid" width="478.98" height="1039.3"><g transform="translate(-695.709752969926 -235.1586567281638)" lucid:page-tab-id="0_0"><path d="M0 0h1870.4v1323.2H0z" fill="#fff"/><path d="M935.46 692.5l20 20-20 20-20-20zM731.7 823.5c-8.83 0-16 7.16-16 16v48c0 8.84 7.17 16 16 16h128c8.85 0 16-7.16 16-16v-48c0-8.84-7.15-16-16-16z" stroke="#000" stroke-width="2" fill="#fff"/><use xlink:href="#a" transform="matrix(1,0,0,1,723.709752969926,831.4993974688355) translate(2.5749999999999886 35.6)"/><use xlink:href="#b" transform="matrix(1,0,0,1,723.709752969926,831.4993974688355) translate(53.474999999999994 35.6)"/><use xlink:href="#c" transform="matrix(1,0,0,1,723.709752969926,831.4993974688355) translate(73.475 35.6)"/><path d="M955.46 275.16c0 11.04-8.95 20-20 20-11.04 0-20-8.96-20-20 0-11.05 8.96-20 20-20 11.05 0 20 8.95 20 20z" stroke="#000" stroke-width="2"/><path d="M936.46 672.58h-2v-87.42h2z"/><path d="M936.46 585.18h-2v-1.02h2zM935.46 687.84l-4.63-14.26h9.27z"/><path d="M935.46 691.08l-6-18.5h12zm-3.26-16.5l3.26 10.03 3.26-10.02z"/><use xlink:href="#d" transform="matrix(1,0,0,1,943.4623536207685,626.8182166136052) translate(0 14.4)"/><use xlink:href="#e" transform="matrix(1,0,0,1,943.4623536207685,626.8182166136052) translate(34 14.4)"/><use xlink:href="#f" transform="matrix(1,0,0,1,943.4623536207685,626.8182166136052) translate(71.9 14.4)"/><use xlink:href="#g" transform="matrix(1,0,0,1,943.4623536207685,626.8182166136052) translate(143.85000000000002 14.4)"/><path d="M835.56 713.94H796.7V804h-2v-92.06h40.86zm77.93 0h-48.6v-2h48.6z"/><path d="M914.05 712.5l1.44 1.44h-2.03v-2h1.13zM795.7 819.26L791.08 805h9.28z"/><path d="M795.7 822.5l-6-18.5h12.02zm-3.25-16.5l3.26 10.03 3.27-10.03z"/><use xlink:href="#h" transform="matrix(1,0,0,1,835.5643650995507,702.1364345058728) translate(0 14.4)"/><path d="M871.46 503.16c-8.83 0-16 7.16-16 16v48c0 8.84 7.17 16 16 16h128c8.84 0 16-7.16 16-16v-48c0-8.84-7.16-16-16-16z" stroke="#000" stroke-width="2" fill="#fff"/><use xlink:href="#i" transform="matrix(1,0,0,1,863.4623536207683,511.1586567281638) translate(17.025 35.6)"/><use xlink:href="#j" transform="matrix(1,0,0,1,863.4623536207683,511.1586567281638) translate(62.025 35.6)"/><use xlink:href="#k" transform="matrix(1,0,0,1,863.4623536207683,511.1586567281638) translate(92.025 35.6)"/><path d="M936.46 339.66h-2v-12.2h2zm0-33.8h-2v-8.7h2z"/><path d="M935.42 296.16l1.04-.04v1.06h-2v-1.14zM935.46 354.92l-4.63-14.26h9.27z"/><path d="M935.46 358.16l-6-18.5h12zm-3.26-16.5l3.26 10.03 3.26-10.04z"/><use xlink:href="#l" transform="matrix(1,0,0,1,830.5623536207684,305.86035093119744) translate(0 14.4)"/><use xlink:href="#m" transform="matrix(1,0,0,1,830.5623536207684,305.86035093119744) translate(52.85 14.4)"/><use xlink:href="#j" transform="matrix(1,0,0,1,830.5623536207684,305.86035093119744) translate(77.85 14.4)"/><use xlink:href="#n" transform="matrix(1,0,0,1,830.5623536207684,305.86035093119744) translate(107.85 14.4)"/><use xlink:href="#o" transform="matrix(1,0,0,1,830.5623536207684,305.86035093119744) translate(180.8 14.4)"/><path d="M871.46 359.16c-8.83 0-16 7.16-16 16v48c0 8.84 7.17 16 16 16h128c8.84 0 16-7.16 16-16v-48c0-8.84-7.16-16-16-16z" stroke="#000" stroke-width="2" fill="#fff"/><use xlink:href="#p" transform="matrix(1,0,0,1,863.4623536207683,367.1586567281638) translate(4.599999999999994 35.6)"/><use xlink:href="#q" transform="matrix(1,0,0,1,863.4623536207683,367.1586567281638) translate(54.55 35.6)"/><use xlink:href="#o" transform="matrix(1,0,0,1,863.4623536207683,367.1586567281638) translate(110.4 35.6)"/><path d="M935.4 441.16v42.5" stroke="#000" stroke-width="2" fill="none"/><path d="M936.4 441.18h-2v-1.02h2z"/><path d="M935.4 498.92l-4.65-14.26h9.27z" stroke="#000" stroke-width="2"/><path d="M1075.7 804h-2v-90.5h-43.12v-2h45.1zm-117.82-90.5v-2h49.75v2z"/><path d="M957.9 713.5h-2.02l1-1-1-1h2.02zM1074.7 819.26l-4.65-14.26h9.28z"/><path d="M1074.7 822.5l-6.02-18.5h12.02zm-3.27-16.5l3.26 10.03 3.25-10.03z"/><use xlink:href="#r" transform="matrix(1,0,0,1,1007.6260597450221,701.6919900614196) translate(0 14.4)"/><path d="M1010.7 823.5c-8.85 0-16 7.16-16 16v48c0 8.84 7.15 16 16 16h128c8.83 0 16-7.16 16-16v-48c0-8.84-7.17-16-16-16z" stroke="#000" stroke-width="2" fill="#fff"/><use xlink:href="#s" transform="matrix(1,0,0,1,1002.6902470300738,831.4993974688355) translate(20.074999999999996 35.6)"/><use xlink:href="#t" transform="matrix(1,0,0,1,1002.6902470300738,831.4993974688355) translate(48.025 35.6)"/><use xlink:href="#u" transform="matrix(1,0,0,1,1002.6902470300738,831.4993974688355) translate(78.025 35.6)"/><path d="M955.2 1234.46c0 11.04-8.95 20-20 20s-20-8.96-20-20c0-11.05 8.95-20 20-20s20 8.95 20 20z" stroke="#000" stroke-width="2" fill="#fff"/><path d="M947.2 1234.46c0 6.62-5.37 12-12 12s-12-5.38-12-12c0-6.63 5.37-12 12-12s12 5.37 12 12z" stroke="#000" stroke-width="2"/><path d="M935.46 988.88l20 20-20 20-20-20z" stroke="#000" stroke-width="2" fill="#fff"/><path d="M796.57 905l122.98 73.02" stroke="#000" stroke-width="2" fill="none"/><path d="M796.08 905.88l-2.33-1.38h3.15z"/><path d="M932.68 985.8l-14.63-3.3 4.73-7.96z" stroke="#000" stroke-width="2"/><path d="M1070 905.88l-118.26 72.74-1.04-1.7 118.24-72.75z"/><path d="M1069.96 905.9l-.85-1.4h3.12zM952.8 982.24l-14.58 3.53 9.72-11.43z"/><path d="M954.37 982.9l-18.9 4.56 12.6-14.8zm-13.4 1.17l10.26-2.48-3.42-5.56zM936.46 1046.37h-2v-15.08h2z"/><path d="M936.46 1031.32h-2v-2.03l1 1 1-1zM935.2 1080.8l-4.17-12.83h8.34z"/><path d="M935.2 1084.05l-5.22-16.08h2.1l3.12 9.6 3.12-9.6h2.1z"/><g><use xlink:href="#v" transform="matrix(1,0,0,1,916.3311768103741,1046.369221411512) translate(0 14.4)"/></g><path d="M871.2 1085.05c-8.84 0-16 7.16-16 16v48c0 8.83 7.16 16 16 16h128c8.84 0 16-7.17 16-16v-48c0-8.84-7.16-16-16-16z" stroke="#000" stroke-width="2" fill="#fff"/><g><use xlink:href="#w" transform="matrix(1,0,0,1,863.1999999999534,1093.0481176219182) translate(28.025 24.799999999999997)"/><use xlink:href="#x" transform="matrix(1,0,0,1,863.1999999999534,1093.0481176219182) translate(90.975 24.799999999999997)"/><use xlink:href="#y" transform="matrix(1,0,0,1,863.1999999999534,1093.0481176219182) translate(23.574999999999996 46.4)"/></g><path d="M935.2 1167.05v27.9" stroke="#000" stroke-width="2" fill="none"/><path d="M936.2 1167.07h-2v-1.02h2z"/><path d="M935.2 1210.22l-4.64-14.27h9.28z" stroke="#000" stroke-width="2"/><path d="M1150.88 1233.9H974.65v-2h174.23V1009.9h-55.34v-2h57.34zm-193-224.02v-2h79.76v2z"/><path d="M957.9 1009.88h-2.02l1-1-1-1h2.02zM973.65 1237.54l-14.27-4.63 14.27-4.63z"/><path d="M974.65 1238.92l-18.5-6 18.5-6.03zm-12.03-6l10.03 3.25v-6.52z"/><g><use xlink:href="#z" transform="matrix(1,0,0,1,1037.6447686285946,998.0761116387323) translate(0 14.4)"/></g><defs><path d="M209 0H11v-25l151-195H24v-28h176v25L50-27h159V0" id="A"/><path d="M100-194c62-1 85 37 85 99 1 63-27 99-86 99S16-35 15-95c0-66 28-99 85-99zM99-20c44 1 53-31 53-75 0-43-8-75-51-75s-53 32-53 75 10 74 51 75" id="B"/><path d="M210-169c-67 3-38 105-44 169h-31v-121c0-29-5-50-35-48C34-165 62-65 56 0H25l-1-190h30c1 10-1 24 2 32 10-44 99-50 107 0 11-21 27-35 58-36 85-2 47 119 55 194h-31v-121c0-29-5-49-35-48" id="C"/><g id="a"><use transform="matrix(0.05,0,0,0.05,0,0)" xlink:href="#A"/><use transform="matrix(0.05,0,0,0.05,10.950000000000001,0)" xlink:href="#B"/><use transform="matrix(0.05,0,0,0.05,20.950000000000003,0)" xlink:href="#B"/><use transform="matrix(0.05,0,0,0.05,30.950000000000003,0)" xlink:href="#C"/></g><path d="M59-47c-2 24 18 29 38 22v24C64 9 27 4 27-40v-127H5v-23h24l9-43h21v43h35v23H59v120" id="D"/><g id="b"><use transform="matrix(0.05,0,0,0.05,0,0)" xlink:href="#D"/><use transform="matrix(0.05,0,0,0.05,5,0)" xlink:href="#B"/></g><path d="M30 0v-248h33v221h125V0H30" id="E"/><path d="M96-169c-40 0-48 33-48 73s9 75 48 75c24 0 41-14 43-38l32 2c-6 37-31 61-74 61-59 0-76-41-82-99-10-93 101-131 147-64 4 7 5 14 7 22l-32 3c-4-21-16-35-41-35" id="F"/><path d="M141-36C126-15 110 5 73 4 37 3 15-17 15-53c-1-64 63-63 125-63 3-35-9-54-41-54-24 1-41 7-42 31l-33-3c5-37 33-52 76-52 45 0 72 20 72 64v82c-1 20 7 32 28 27v20c-31 9-61-2-59-35zM48-53c0 20 12 33 32 33 41-3 63-29 60-74-43 2-92-5-92 41" id="G"/><path d="M24-231v-30h32v30H24zM24 0v-190h32V0H24" id="H"/><path d="M117-194c89-4 53 116 60 194h-32v-121c0-31-8-49-39-48C34-167 62-67 57 0H25l-1-190h30c1 10-1 24 2 32 11-22 29-35 61-36" id="I"/><g id="c"><use transform="matrix(0.05,0,0,0.05,0,0)" xlink:href="#E"/><use transform="matrix(0.05,0,0,0.05,10,0)" xlink:href="#B"/><use transform="matrix(0.05,0,0,0.05,20,0)" xlink:href="#F"/><use transform="matrix(0.05,0,0,0.05,29,0)" xlink:href="#G"/><use transform="matrix(0.05,0,0,0.05,39,0)" xlink:href="#D"/><use transform="matrix(0.05,0,0,0.05,44,0)" xlink:href="#H"/><use transform="matrix(0.05,0,0,0.05,47.95,0)" xlink:href="#B"/><use transform="matrix(0.05,0,0,0.05,57.95,0)" xlink:href="#I"/></g><path d="M100-194c63 0 86 42 84 106H49c0 40 14 67 53 68 26 1 43-12 49-29l28 8c-11 28-37 45-77 45C44 4 14-33 15-96c1-61 26-98 85-98zm52 81c6-60-76-77-97-28-3 7-6 17-6 28h103" id="J"/><path d="M141 0L90-78 38 0H4l68-98-65-92h35l48 74 47-74h35l-64 92 68 98h-35" id="K"/><g id="d"><use transform="matrix(0.05,0,0,0.05,0,0)" xlink:href="#D"/><use transform="matrix(0.05,0,0,0.05,5,0)" xlink:href="#J"/><use transform="matrix(0.05,0,0,0.05,15,0)" xlink:href="#K"/><use transform="matrix(0.05,0,0,0.05,24,0)" xlink:href="#D"/></g><path d="M101-234c-31-9-42 10-38 44h38v23H63V0H32v-167H5v-23h27c-7-52 17-82 69-68v24" id="L"/><path d="M24 0v-261h32V0H24" id="M"/><path d="M85-194c31 0 48 13 60 33l-1-100h32l1 261h-30c-2-10 0-23-3-31C134-8 116 4 85 4 32 4 16-35 15-94c0-66 23-100 70-100zm9 24c-40 0-46 34-46 75 0 40 6 74 45 74 42 0 51-32 51-76 0-42-9-74-50-73" id="N"/><g id="e"><use transform="matrix(0.05,0,0,0.05,0,0)" xlink:href="#L"/><use transform="matrix(0.05,0,0,0.05,5,0)" xlink:href="#H"/><use transform="matrix(0.05,0,0,0.05,8.95,0)" xlink:href="#J"/><use transform="matrix(0.05,0,0,0.05,18.95,0)" xlink:href="#M"/><use transform="matrix(0.05,0,0,0.05,22.9,0)" xlink:href="#N"/></g><path d="M135-143c-3-34-86-38-87 0 15 53 115 12 119 90S17 21 10-45l28-5c4 36 97 45 98 0-10-56-113-15-118-90-4-57 82-63 122-42 12 7 21 19 24 35" id="O"/><g id="f"><use transform="matrix(0.05,0,0,0.05,0,0)" xlink:href="#F"/><use transform="matrix(0.05,0,0,0.05,9,0)" xlink:href="#B"/><use transform="matrix(0.05,0,0,0.05,19,0)" xlink:href="#I"/><use transform="matrix(0.05,0,0,0.05,29,0)" xlink:href="#D"/><use transform="matrix(0.05,0,0,0.05,34,0)" xlink:href="#G"/><use transform="matrix(0.05,0,0,0.05,44,0)" xlink:href="#H"/><use transform="matrix(0.05,0,0,0.05,47.95,0)" xlink:href="#I"/><use transform="matrix(0.05,0,0,0.05,57.95,0)" xlink:href="#O"/></g><path d="M103-251c84 0 111 97 45 133-19 10-37 24-39 52H78c0-63 77-55 77-114 0-30-21-42-52-43-32 0-53 17-56 46l-32-2c7-45 34-72 88-72zM77 0v-35h34V0H77" id="P"/><g id="g"><use transform="matrix(0.05,0,0,0.05,0,0)" xlink:href="#M"/><use transform="matrix(0.05,0,0,0.05,3.95,0)" xlink:href="#B"/><use transform="matrix(0.05,0,0,0.05,13.949999999999998,0)" xlink:href="#F"/><use transform="matrix(0.05,0,0,0.05,22.95,0)" xlink:href="#G"/><use transform="matrix(0.05,0,0,0.05,32.95,0)" xlink:href="#D"/><use transform="matrix(0.05,0,0,0.05,37.95,0)" xlink:href="#H"/><use transform="matrix(0.05,0,0,0.05,41.900000000000006,0)" xlink:href="#B"/><use transform="matrix(0.05,0,0,0.05,51.900000000000006,0)" xlink:href="#I"/><use transform="matrix(0.05,0,0,0.05,61.900000000000006,0)" xlink:href="#P"/></g><path d="M137-103V0h-34v-103L8-248h37l75 118 75-118h37" id="Q"/><g id="h"><use transform="matrix(0.05,0,0,0.05,0,0)" xlink:href="#Q"/><use transform="matrix(0.05,0,0,0.05,10.35,0)" xlink:href="#J"/><use transform="matrix(0.05,0,0,0.05,20.35,0)" xlink:href="#O"/></g><g id="i"><use transform="matrix(0.05,0,0,0.05,0,0)" xlink:href="#E"/><use transform="matrix(0.05,0,0,0.05,10,0)" xlink:href="#B"/><use transform="matrix(0.05,0,0,0.05,20,0)" xlink:href="#G"/><use transform="matrix(0.05,0,0,0.05,30,0)" xlink:href="#N"/></g><path d="M106-169C34-169 62-67 57 0H25v-261h32l-1 103c12-21 28-36 61-36 89 0 53 116 60 194h-32v-121c2-32-8-49-39-48" id="R"/><g id="j"><use transform="matrix(0.05,0,0,0.05,0,0)" xlink:href="#D"/><use transform="matrix(0.05,0,0,0.05,5,0)" xlink:href="#R"/><use transform="matrix(0.05,0,0,0.05,15,0)" xlink:href="#J"/></g><path d="M240 0l2-218c-23 76-54 145-80 218h-23L58-218 59 0H30v-248h44l77 211c21-75 51-140 76-211h43V0h-30" id="S"/><path d="M115-194c55 1 70 41 70 98S169 2 115 4C84 4 66-9 55-30l1 105H24l-1-265h31l2 30c10-21 28-34 59-34zm-8 174c40 0 45-34 45-75s-6-73-45-74c-42 0-51 32-51 76 0 43 10 73 51 73" id="T"/><g id="k"><use transform="matrix(0.05,0,0,0.05,0,0)" xlink:href="#S"/><use transform="matrix(0.05,0,0,0.05,14.950000000000001,0)" xlink:href="#G"/><use transform="matrix(0.05,0,0,0.05,24.950000000000003,0)" xlink:href="#T"/></g><path d="M212-179c-10-28-35-45-73-45-59 0-87 40-87 99 0 60 29 101 89 101 43 0 62-24 78-52l27 14C228-24 195 4 139 4 59 4 22-46 18-125c-6-104 99-153 187-111 19 9 31 26 39 46" id="U"/><path d="M143 0L79-87 56-68V0H24v-261h32v163l83-92h37l-77 82L181 0h-38" id="V"/><g id="l"><use transform="matrix(0.05,0,0,0.05,0,0)" xlink:href="#U"/><use transform="matrix(0.05,0,0,0.05,12.950000000000001,0)" xlink:href="#M"/><use transform="matrix(0.05,0,0,0.05,16.900000000000002,0)" xlink:href="#H"/><use transform="matrix(0.05,0,0,0.05,20.85,0)" xlink:href="#F"/><use transform="matrix(0.05,0,0,0.05,29.85,0)" xlink:href="#V"/><use transform="matrix(0.05,0,0,0.05,38.85,0)" xlink:href="#O"/></g><g id="m"><use transform="matrix(0.05,0,0,0.05,0,0)" xlink:href="#B"/><use transform="matrix(0.05,0,0,0.05,10,0)" xlink:href="#I"/></g><g id="n"><use transform="matrix(0.05,0,0,0.05,0,0)" xlink:href="#E"/><use transform="matrix(0.05,0,0,0.05,10,0)" xlink:href="#B"/><use transform="matrix(0.05,0,0,0.05,20,0)" xlink:href="#F"/><use transform="matrix(0.05,0,0,0.05,29,0)" xlink:href="#G"/><use transform="matrix(0.05,0,0,0.05,39,0)" xlink:href="#D"/><use transform="matrix(0.05,0,0,0.05,44,0)" xlink:href="#H"/><use transform="matrix(0.05,0,0,0.05,47.95,0)" xlink:href="#B"/><use transform="matrix(0.05,0,0,0.05,57.95,0)" xlink:href="#I"/></g><path d="M115-194c53 0 69 39 70 98 0 66-23 100-70 100C84 3 66-7 56-30L54 0H23l1-261h32v101c10-23 28-34 59-34zm-8 174c40 0 45-34 45-75 0-40-5-75-45-74-42 0-51 32-51 76 0 43 10 73 51 73" id="W"/><g id="o"><use transform="matrix(0.05,0,0,0.05,0,0)" xlink:href="#W"/><use transform="matrix(0.05,0,0,0.05,10,0)" xlink:href="#B"/><use transform="matrix(0.05,0,0,0.05,20,0)" xlink:href="#K"/></g><path d="M185-189c-5-48-123-54-124 2 14 75 158 14 163 119 3 78-121 87-175 55-17-10-28-26-33-46l33-7c5 56 141 63 141-1 0-78-155-14-162-118-5-82 145-84 179-34 5 7 8 16 11 25" id="X"/><path d="M206 0h-36l-40-164L89 0H53L-1-190h32L70-26l43-164h34l41 164 42-164h31" id="Y"/><g id="p"><use transform="matrix(0.05,0,0,0.05,0,0)" xlink:href="#X"/><use transform="matrix(0.05,0,0,0.05,12,0)" xlink:href="#R"/><use transform="matrix(0.05,0,0,0.05,22,0)" xlink:href="#B"/><use transform="matrix(0.05,0,0,0.05,32,0)" xlink:href="#Y"/></g><path d="M30-248c118-7 216 8 213 122C240-48 200 0 122 0H30v-248zM63-27c89 8 146-16 146-99s-60-101-146-95v194" id="Z"/><path d="M177-190C167-65 218 103 67 71c-23-6-38-20-44-43l32-5c15 47 100 32 89-28v-30C133-14 115 1 83 1 29 1 15-40 15-95c0-56 16-97 71-98 29-1 48 16 59 35 1-10 0-23 2-32h30zM94-22c36 0 50-32 50-73 0-42-14-75-50-75-39 0-46 34-46 75s6 73 46 73" id="aa"/><g id="q"><use transform="matrix(0.05,0,0,0.05,0,0)" xlink:href="#Z"/><use transform="matrix(0.05,0,0,0.05,12.950000000000001,0)" xlink:href="#H"/><use transform="matrix(0.05,0,0,0.05,16.900000000000002,0)" xlink:href="#G"/><use transform="matrix(0.05,0,0,0.05,26.900000000000002,0)" xlink:href="#M"/><use transform="matrix(0.05,0,0,0.05,30.85,0)" xlink:href="#B"/><use transform="matrix(0.05,0,0,0.05,40.85,0)" xlink:href="#aa"/></g><path d="M190 0L58-211 59 0H30v-248h39L202-35l-2-213h31V0h-41" id="ab"/><g id="r"><use transform="matrix(0.05,0,0,0.05,0,0)" xlink:href="#ab"/><use transform="matrix(0.05,0,0,0.05,12.950000000000001,0)" xlink:href="#B"/></g><g id="s"><use transform="matrix(0.05,0,0,0.05,0,0)" xlink:href="#Z"/><use transform="matrix(0.05,0,0,0.05,12.950000000000001,0)" xlink:href="#B"/></g><g id="t"><use transform="matrix(0.05,0,0,0.05,0,0)" xlink:href="#I"/><use transform="matrix(0.05,0,0,0.05,10,0)" xlink:href="#B"/><use transform="matrix(0.05,0,0,0.05,20,0)" xlink:href="#D"/></g><g id="u"><use transform="matrix(0.05,0,0,0.05,0,0)" xlink:href="#A"/><use transform="matrix(0.05,0,0,0.05,10.950000000000001,0)" xlink:href="#B"/><use transform="matrix(0.05,0,0,0.05,20.950000000000003,0)" xlink:href="#B"/><use transform="matrix(0.05,0,0,0.05,30.950000000000003,0)" xlink:href="#C"/></g><path d="M108 0H70L1-190h34L89-25l56-165h34" id="ac"/><g id="v"><use transform="matrix(0.05,0,0,0.05,0,0)" xlink:href="#O"/><use transform="matrix(0.05,0,0,0.05,9,0)" xlink:href="#G"/><use transform="matrix(0.05,0,0,0.05,19,0)" xlink:href="#ac"/><use transform="matrix(0.05,0,0,0.05,28,0)" xlink:href="#J"/></g><path d="M232-93c-1 65-40 97-104 97C67 4 28-28 28-90v-158h33c8 89-33 224 67 224 102 0 64-133 71-224h33v155" id="ad"/><g id="w"><use transform="matrix(0.05,0,0,0.05,0,0)" xlink:href="#ad"/><use transform="matrix(0.05,0,0,0.05,12.950000000000001,0)" xlink:href="#T"/><use transform="matrix(0.05,0,0,0.05,22.950000000000003,0)" xlink:href="#N"/><use transform="matrix(0.05,0,0,0.05,32.95,0)" xlink:href="#G"/><use transform="matrix(0.05,0,0,0.05,42.95,0)" xlink:href="#D"/><use transform="matrix(0.05,0,0,0.05,47.95,0)" xlink:href="#J"/></g><g id="x"><use transform="matrix(0.05,0,0,0.05,0,0)" xlink:href="#D"/><use transform="matrix(0.05,0,0,0.05,5,0)" xlink:href="#R"/><use transform="matrix(0.05,0,0,0.05,15,0)" xlink:href="#J"/></g><path d="M114-163C36-179 61-72 57 0H25l-1-190h30c1 12-1 29 2 39 6-27 23-49 58-41v29" id="ae"/><g id="y"><use transform="matrix(0.05,0,0,0.05,0,0)" xlink:href="#U"/><use transform="matrix(0.05,0,0,0.05,12.950000000000001,0)" xlink:href="#B"/><use transform="matrix(0.05,0,0,0.05,22.950000000000003,0)" xlink:href="#B"/><use transform="matrix(0.05,0,0,0.05,32.95,0)" xlink:href="#ae"/><use transform="matrix(0.05,0,0,0.05,38.900000000000006,0)" xlink:href="#N"/><use transform="matrix(0.05,0,0,0.05,48.900000000000006,0)" xlink:href="#H"/><use transform="matrix(0.05,0,0,0.05,52.85,0)" xlink:href="#I"/><use transform="matrix(0.05,0,0,0.05,62.85,0)" xlink:href="#G"/><use transform="matrix(0.05,0,0,0.05,72.85000000000001,0)" xlink:href="#D"/><use transform="matrix(0.05,0,0,0.05,77.85000000000001,0)" xlink:href="#J"/><use transform="matrix(0.05,0,0,0.05,87.85000000000001,0)" xlink:href="#O"/></g><g id="z"><use transform="matrix(0.05,0,0,0.05,0,0)" xlink:href="#U"/><use transform="matrix(0.05,0,0,0.05,12.950000000000001,0)" xlink:href="#G"/><use transform="matrix(0.05,0,0,0.05,22.950000000000003,0)" xlink:href="#I"/><use transform="matrix(0.05,0,0,0.05,32.95,0)" xlink:href="#F"/><use transform="matrix(0.05,0,0,0.05,41.95,0)" xlink:href="#J"/><use transform="matrix(0.05,0,0,0.05,51.95,0)" xlink:href="#M"/></g></defs></g></svg>