<svg xmlns="http://www.w3.org/2000/svg" xmlns:xlink="http://www.w3.org/1999/xlink" xmlns:lucid="lucid" width="1450" height="1028.82"><g transform="translate(-710.0000000000005 -554.6767554479419)" lucid:page-tab-id="1jX3C7UO40VP"><path d="M0 0h3537.58v3041.17H0z" fill="#fff"/><path d="M1344 619.5h360v424h-360z" stroke="#333" stroke-width="2" fill="#fff"/><path d="M1344 670.43h360M1344 893.3h360" stroke="#333" stroke-width="2" fill="none"/><use xlink:href="#a" transform="matrix(1,0,0,1,1352.000000000001,627.5) translate(93.72345679012348 23.32222222222222)"/><use xlink:href="#b" transform="matrix(1,0,0,1,1356.000000000001,678.4333333333333) translate(0 74.3888888888889)"/><use xlink:href="#c" transform="matrix(1,0,0,1,1356.000000000001,678.4333333333333) translate(17.709259259259255 74.3888888888889)"/><use xlink:href="#d" transform="matrix(1,0,0,1,1356.000000000001,678.4333333333333) translate(82.23888888888887 74.3888888888889)"/><use xlink:href="#b" transform="matrix(1,0,0,1,1356.000000000001,678.4333333333333) translate(0 109.32222222222221)"/><use xlink:href="#e" transform="matrix(1,0,0,1,1356.000000000001,678.4333333333333) translate(17.709259259259255 109.32222222222221)"/><use xlink:href="#f" transform="matrix(1,0,0,1,1356.000000000001,678.4333333333333) translate(133.99197530864194 109.32222222222221)"/><use xlink:href="#b" transform="matrix(1,0,0,1,1356.000000000001,678.4333333333333) translate(0 144.25555555555556)"/><use xlink:href="#g" transform="matrix(1,0,0,1,1356.000000000001,678.4333333333333) translate(17.709259259259255 144.25555555555556)"/><use xlink:href="#h" transform="matrix(1,0,0,1,1356.000000000001,678.4333333333333) translate(88.70802469135799 144.25555555555556)"/><path d="M1780 574.68h360v296h-360z" stroke="#333" stroke-width="2" fill="#fff"/><path d="M1780 625.6h360m-360 199.17h360" stroke="#333" stroke-width="2" fill="none"/><use xlink:href="#i" transform="matrix(1,0,0,1,1788.000000000001,582.6767554479419) translate(146.20432098765434 23.32222222222222)"/><use xlink:href="#b" transform="matrix(1,0,0,1,1792.000000000001,633.6100887812752) translate(0 27.955555555555566)"/><use xlink:href="#j" transform="matrix(1,0,0,1,1792.000000000001,633.6100887812752) translate(17.709259259259255 27.955555555555566)"/><use xlink:href="#k" transform="matrix(1,0,0,1,1792.000000000001,633.6100887812752) translate(106.57901234567899 27.955555555555566)"/><use xlink:href="#b" transform="matrix(1,0,0,1,1792.000000000001,633.6100887812752) translate(0 62.888888888888886)"/><use xlink:href="#l" transform="matrix(1,0,0,1,1792.000000000001,633.6100887812752) translate(17.709259259259255 62.888888888888886)"/><use xlink:href="#k" transform="matrix(1,0,0,1,1792.000000000001,633.6100887812752) translate(109.65185185185182 62.888888888888886)"/><use xlink:href="#b" transform="matrix(1,0,0,1,1792.000000000001,633.6100887812752) translate(0 97.82222222222221)"/><use xlink:href="#m" transform="matrix(1,0,0,1,1792.000000000001,633.6100887812752) translate(17.709259259259255 97.82222222222221)"/><use xlink:href="#k" transform="matrix(1,0,0,1,1792.000000000001,633.6100887812752) translate(172.80679012345675 97.82222222222221)"/><use xlink:href="#b" transform="matrix(1,0,0,1,1792.000000000001,633.6100887812752) translate(0 132.75555555555553)"/><use xlink:href="#n" transform="matrix(1,0,0,1,1792.000000000001,633.6100887812752) translate(17.709259259259255 132.75555555555553)"/><use xlink:href="#k" transform="matrix(1,0,0,1,1792.000000000001,633.6100887812752) translate(96.79444444444441 132.75555555555553)"/><use xlink:href="#b" transform="matrix(1,0,0,1,1792.000000000001,633.6100887812752) translate(0 167.68888888888887)"/><use xlink:href="#o" transform="matrix(1,0,0,1,1792.000000000001,633.6100887812752) translate(17.709259259259255 167.68888888888887)"/><use xlink:href="#p" transform="matrix(1,0,0,1,1792.000000000001,633.6100887812752) translate(85.5543209876543 167.68888888888887)"/><path d="M1780 893.42h360v217h-360z" stroke="#333" stroke-width="2" fill="#fff"/><path d="M1780 944.35h360m-360 107.37h360" stroke="#333" stroke-width="2" fill="none"/><use xlink:href="#q" transform="matrix(1,0,0,1,1788.000000000001,901.4213075060533) translate(117.05277777777779 23.32222222222222)"/><use xlink:href="#b" transform="matrix(1,0,0,1,1792.000000000001,952.3546408393865) translate(0 34.355555555555554)"/><use xlink:href="#r" transform="matrix(1,0,0,1,1792.000000000001,952.3546408393865) translate(17.709259259259255 34.355555555555554)"/><use xlink:href="#s" transform="matrix(1,0,0,1,1792.000000000001,952.3546408393865) translate(64.52962962962961 34.355555555555554)"/><use xlink:href="#b" transform="matrix(1,0,0,1,1792.000000000001,952.3546408393865) translate(0 69.28888888888888)"/><use xlink:href="#t" transform="matrix(1,0,0,1,1792.000000000001,952.3546408393865) translate(17.709259259259255 69.28888888888888)"/><use xlink:href="#u" transform="matrix(1,0,0,1,1792.000000000001,952.3546408393865) translate(72.61604938271603 69.28888888888888)"/><path d="M730 941h436v231H730z" stroke="#333" stroke-width="2" fill="#fff"/><path d="M730 991.93h436m-436 72.44h436" stroke="#333" stroke-width="2" fill="none"/><use xlink:href="#v" transform="matrix(1,0,0,1,738.0000000000005,948.9999999999998) translate(114.31203703703707 23.32222222222222)"/><use xlink:href="#w" transform="matrix(1,0,0,1,742.0000000000005,999.933333333333) translate(0 34.32222222222222)"/><use xlink:href="#x" transform="matrix(1,0,0,1,742.0000000000005,999.933333333333) translate(25.067901234567895 34.32222222222222)"/><use xlink:href="#y" transform="matrix(1,0,0,1,742.0000000000005,999.933333333333) translate(268.3882716049382 34.32222222222222)"/><use xlink:href="#w" transform="matrix(1,0,0,1,742.0000000000005,1072.3666666666663) translate(0 34.355555555555554)"/><use xlink:href="#z" transform="matrix(1,0,0,1,742.0000000000005,1072.3666666666663) translate(25.067901234567895 34.355555555555554)"/><use xlink:href="#w" transform="matrix(1,0,0,1,742.0000000000005,1072.3666666666663) translate(0 69.28888888888888)"/><use xlink:href="#A" transform="matrix(1,0,0,1,742.0000000000005,1072.3666666666663) translate(25.067901234567895 69.28888888888888)"/><path d="M850 619.5h360v252H850z" stroke="#333" stroke-width="2" fill="#fff"/><path d="M850 670.43h360m-360 59.1h360" stroke="#333" stroke-width="2" fill="none"/><use xlink:href="#B" transform="matrix(1,0,0,1,858.0000000000009,627.5) translate(33.11574074074079 23.32222222222222)"/><g><use xlink:href="#w" transform="matrix(1,0,0,1,862.0000000000009,737.5333333333333) translate(0 34.3888888888889)"/><use xlink:href="#C" transform="matrix(1,0,0,1,862.0000000000009,737.5333333333333) translate(25.067901234567895 34.3888888888889)"/><use xlink:href="#w" transform="matrix(1,0,0,1,862.0000000000009,737.5333333333333) translate(0 69.32222222222222)"/><use xlink:href="#D" transform="matrix(1,0,0,1,862.0000000000009,737.5333333333333) translate(25.067901234567895 69.32222222222222)"/><use xlink:href="#w" transform="matrix(1,0,0,1,862.0000000000009,737.5333333333333) translate(0 104.25555555555555)"/><use xlink:href="#E" transform="matrix(1,0,0,1,862.0000000000009,737.5333333333333) translate(25.067901234567895 104.25555555555555)"/></g><path d="M850 1241.5h360v322H850z" stroke="#333" stroke-width="2" fill="#fff"/><path d="M850 1292.43h360m-360 59.1h360" stroke="#333" stroke-width="2" fill="none"/><g><use xlink:href="#F" transform="matrix(1,0,0,1,858.0000000000009,1249.4999999999995) translate(52.44228395061734 23.32222222222222)"/></g><g><use xlink:href="#w" transform="matrix(1,0,0,1,862.0000000000009,1359.5333333333328) translate(0 34.45555555555556)"/><use xlink:href="#C" transform="matrix(1,0,0,1,862.0000000000009,1359.5333333333328) translate(25.067901234567895 34.45555555555556)"/><use xlink:href="#w" transform="matrix(1,0,0,1,862.0000000000009,1359.5333333333328) translate(0 69.38888888888889)"/><use xlink:href="#G" transform="matrix(1,0,0,1,862.0000000000009,1359.5333333333328) translate(25.067901234567895 69.38888888888889)"/><use xlink:href="#w" transform="matrix(1,0,0,1,862.0000000000009,1359.5333333333328) translate(0 104.32222222222221)"/><use xlink:href="#H" transform="matrix(1,0,0,1,862.0000000000009,1359.5333333333328) translate(25.067901234567895 104.32222222222221)"/><use xlink:href="#w" transform="matrix(1,0,0,1,862.0000000000009,1359.5333333333328) translate(0 139.25555555555553)"/><use xlink:href="#D" transform="matrix(1,0,0,1,862.0000000000009,1359.5333333333328) translate(25.067901234567895 139.25555555555553)"/><use xlink:href="#w" transform="matrix(1,0,0,1,862.0000000000009,1359.5333333333328) translate(0 174.18888888888887)"/><use xlink:href="#I" transform="matrix(1,0,0,1,862.0000000000009,1359.5333333333328) translate(25.067901234567895 174.18888888888887)"/></g><path d="M1344 1137.5h360v252h-360z" stroke="#333" stroke-width="2" fill="#fff"/><path d="M1344 1188.43h360m-360 142.3h360" stroke="#333" stroke-width="2" fill="none"/><g><use xlink:href="#J" transform="matrix(1,0,0,1,1352.000000000001,1145.4999999999995) translate(113.05000000000001 23.32222222222222)"/></g><g><use xlink:href="#b" transform="matrix(1,0,0,1,1356.000000000001,1196.433333333333) translate(0 34.3888888888889)"/><use xlink:href="#j" transform="matrix(1,0,0,1,1356.000000000001,1196.433333333333) translate(17.709259259259255 34.3888888888889)"/><use xlink:href="#k" transform="matrix(1,0,0,1,1356.000000000001,1196.433333333333) translate(106.57901234567899 34.3888888888889)"/><use xlink:href="#b" transform="matrix(1,0,0,1,1356.000000000001,1196.433333333333) translate(0 69.32222222222222)"/><use xlink:href="#K" transform="matrix(1,0,0,1,1356.000000000001,1196.433333333333) translate(17.709259259259255 69.32222222222222)"/><use xlink:href="#L" transform="matrix(1,0,0,1,1356.000000000001,1196.433333333333) translate(56.44320987654319 69.32222222222222)"/><use xlink:href="#b" transform="matrix(1,0,0,1,1356.000000000001,1196.433333333333) translate(0 104.25555555555555)"/><use xlink:href="#M" transform="matrix(1,0,0,1,1356.000000000001,1196.433333333333) translate(17.709259259259255 104.25555555555555)"/><use xlink:href="#N" transform="matrix(1,0,0,1,1356.000000000001,1196.433333333333) translate(146.84938271604935 104.25555555555555)"/></g><path d="M1778.5 722.68h-43.12" stroke="#333" fill="none"/><path d="M1779 723.18h-.5v-1h.5z" fill="#333"/><path d="M1705.7 722.68l14.86-14.85 15.15 14.85-15.14 14.85z" stroke="#333" fill="#333"/><path d="M1778.5 1001.92h-43.12" stroke="#333" fill="none"/><path d="M1779 1002.42h-.5v-1h.5z" fill="#333"/><path d="M1705.7 1001.92l14.86-14.85 15.15 14.85-15.14 14.85z" stroke="#333" fill="#333"/><path d="M919.15 909.62V873" stroke="#333" fill="none"/><path d="M919.15 939.3l-14.84-14.86 14.85-15.15L934 924.43z" stroke="#333" fill="#333"/><path d="M919.65 873h-1v-.5h1z" fill="#333"/><path d="M936.12 1203.37V1240" stroke="#333" fill="none"/><path d="M936.12 1173.7l14.85 14.86-14.85 15.15-14.85-15.14z" stroke="#333" fill="#333"/><path d="M936.62 1240.5h-1v-.5h1zM1277.5 1373h-36.13v-1h35.13v-36.53h1zm65-109h-65v36.54h-1V1263h66z" fill="#333"/><path d="M1241.7 1372.5l-15.14 14.86-14.85-14.85 14.86-14.84z" fill="#fff"/><path d="M1242.42 1372.5l-15.87 15.56-15.55-15.55 15.55-15.54zm-30 0l14.14 14.16 14.43-14.15-14.44-14.14zM1343 1264h-.5v-1h.5z" fill="#333"/><g><use xlink:href="#O" transform="matrix(1,0,0,1,1237.4169753086428,1300.5382352941172) translate(0.005000000000002558 23.28888888888888)"/></g><path d="M1277.5 831h65v1h-66v-40.45h1zm0-74.38h-1V746h-35.13v-1h36.13z" fill="#333"/><path d="M1241.7 745.5l-15.14 14.85-14.85-14.85 14.86-14.85z" fill="#fff"/><path d="M1242.42 745.5l-15.87 15.55L1211 745.5l15.55-15.55zm-30 0l14.14 14.15L1241 745.5l-14.44-14.15zM1343 832h-.5v-1h.5z" fill="#333"/><g><use xlink:href="#O" transform="matrix(1,0,0,1,1237.4169753086428,756.6180201082749) translate(0.005000000000002558 23.28888888888888)"/></g><defs><path fill="#333" d="M160-131c35 5 61 23 61 61C221 17 115-2 30 0v-248c76 3 177-17 177 60 0 33-19 50-47 57zm-97-11c50-1 110 9 110-42 0-47-63-36-110-37v79zm0 115c55-2 124 14 124-45 0-56-70-42-124-44v89" id="P"/><path fill="#333" d="M24-231v-30h32v30H24zM24 0v-190h32V0H24" id="Q"/><path fill="#333" d="M114-163C36-179 61-72 57 0H25l-1-190h30c1 12-1 29 2 39 6-27 23-49 58-41v29" id="R"/><path fill="#333" d="M85-194c31 0 48 13 60 33l-1-100h32l1 261h-30c-2-10 0-23-3-31C134-8 116 4 85 4 32 4 16-35 15-94c0-66 23-100 70-100zm9 24c-40 0-46 34-46 75 0 40 6 74 45 74 42 0 51-32 51-76 0-42-9-74-50-73" id="S"/><path fill="#333" d="M185-189c-5-48-123-54-124 2 14 75 158 14 163 119 3 78-121 87-175 55-17-10-28-26-33-46l33-7c5 56 141 63 141-1 0-78-155-14-162-118-5-82 145-84 179-34 5 7 8 16 11 25" id="T"/><path fill="#333" d="M177-190C167-65 218 103 67 71c-23-6-38-20-44-43l32-5c15 47 100 32 89-28v-30C133-14 115 1 83 1 29 1 15-40 15-95c0-56 16-97 71-98 29-1 48 16 59 35 1-10 0-23 2-32h30zM94-22c36 0 50-32 50-73 0-42-14-75-50-75-39 0-46 34-46 75s6 73 46 73" id="U"/><path fill="#333" d="M106-169C34-169 62-67 57 0H25v-261h32l-1 103c12-21 28-36 61-36 89 0 53 116 60 194h-32v-121c2-32-8-49-39-48" id="V"/><path fill="#333" d="M59-47c-2 24 18 29 38 22v24C64 9 27 4 27-40v-127H5v-23h24l9-43h21v43h35v23H59v120" id="W"/><path fill="#333" d="M117-194c89-4 53 116 60 194h-32v-121c0-31-8-49-39-48C34-167 62-67 57 0H25l-1-190h30c1 10-1 24 2 32 11-22 29-35 61-36" id="X"/><g id="a"><use transform="matrix(0.08086419753086417,0,0,0.08086419753086417,0,0)" xlink:href="#P"/><use transform="matrix(0.08086419753086417,0,0,0.08086419753086417,19.4074074074074,0)" xlink:href="#Q"/><use transform="matrix(0.08086419753086417,0,0,0.08086419753086417,25.79567901234567,0)" xlink:href="#R"/><use transform="matrix(0.08086419753086417,0,0,0.08086419753086417,35.41851851851851,0)" xlink:href="#S"/><use transform="matrix(0.08086419753086417,0,0,0.08086419753086417,51.59135802469134,0)" xlink:href="#T"/><use transform="matrix(0.08086419753086417,0,0,0.08086419753086417,70.99876543209875,0)" xlink:href="#Q"/><use transform="matrix(0.08086419753086417,0,0,0.08086419753086417,77.38703703703702,0)" xlink:href="#U"/><use transform="matrix(0.08086419753086417,0,0,0.08086419753086417,93.55987654320984,0)" xlink:href="#V"/><use transform="matrix(0.08086419753086417,0,0,0.08086419753086417,109.73271604938267,0)" xlink:href="#W"/><use transform="matrix(0.08086419753086417,0,0,0.08086419753086417,117.81913580246909,0)" xlink:href="#Q"/><use transform="matrix(0.08086419753086417,0,0,0.08086419753086417,124.20740740740737,0)" xlink:href="#X"/><use transform="matrix(0.08086419753086417,0,0,0.08086419753086417,140.3802469135802,0)" xlink:href="#U"/></g><path fill="#333" d="M16-82v-28h88v28H16" id="Y"/><use transform="matrix(0.08086419753086417,0,0,0.08086419753086417,0,0)" xlink:href="#Y" id="b"/><path fill="#333" d="M115-194c53 0 69 39 70 98 0 66-23 100-70 100C84 3 66-7 56-30L54 0H23l1-261h32v101c10-23 28-34 59-34zm-8 174c40 0 45-34 45-75 0-40-5-75-45-74-42 0-51 32-51 76 0 43 10 73 51 73" id="Z"/><path fill="#333" d="M33-154v-36h34v36H33zM33 0v-36h34V0H33" id="aa"/><g id="c"><use transform="matrix(0.08086419753086417,0,0,0.08086419753086417,0,0)" xlink:href="#Z"/><use transform="matrix(0.08086419753086417,0,0,0.08086419753086417,16.172839506172835,0)" xlink:href="#Q"/><use transform="matrix(0.08086419753086417,0,0,0.08086419753086417,22.561111111111103,0)" xlink:href="#R"/><use transform="matrix(0.08086419753086417,0,0,0.08086419753086417,32.18395061728394,0)" xlink:href="#S"/><use transform="matrix(0.08086419753086417,0,0,0.08086419753086417,48.356790123456776,0)" xlink:href="#aa"/></g><g id="d"><use transform="matrix(0.08086419753086417,0,0,0.08086419753086417,0,0)" xlink:href="#P"/><use transform="matrix(0.08086419753086417,0,0,0.08086419753086417,19.4074074074074,0)" xlink:href="#Q"/><use transform="matrix(0.08086419753086417,0,0,0.08086419753086417,25.79567901234567,0)" xlink:href="#R"/><use transform="matrix(0.08086419753086417,0,0,0.08086419753086417,35.41851851851851,0)" xlink:href="#S"/></g><path fill="#333" d="M24 0v-261h32V0H24" id="ab"/><path fill="#333" d="M100-194c62-1 85 37 85 99 1 63-27 99-86 99S16-35 15-95c0-66 28-99 85-99zM99-20c44 1 53-31 53-75 0-43-8-75-51-75s-53 32-53 75 10 74 51 75" id="ac"/><path fill="#333" d="M96-169c-40 0-48 33-48 73s9 75 48 75c24 0 41-14 43-38l32 2c-6 37-31 61-74 61-59 0-76-41-82-99-10-93 101-131 147-64 4 7 5 14 7 22l-32 3c-4-21-16-35-41-35" id="ad"/><path fill="#333" d="M141-36C126-15 110 5 73 4 37 3 15-17 15-53c-1-64 63-63 125-63 3-35-9-54-41-54-24 1-41 7-42 31l-33-3c5-37 33-52 76-52 45 0 72 20 72 64v82c-1 20 7 32 28 27v20c-31 9-61-2-59-35zM48-53c0 20 12 33 32 33 41-3 63-29 60-74-43 2-92-5-92 41" id="ae"/><g id="e"><use transform="matrix(0.08086419753086417,0,0,0.08086419753086417,0,0)" xlink:href="#ab"/><use transform="matrix(0.08086419753086417,0,0,0.08086419753086417,6.38827160493827,0)" xlink:href="#ac"/><use transform="matrix(0.08086419753086417,0,0,0.08086419753086417,22.561111111111103,0)" xlink:href="#ad"/><use transform="matrix(0.08086419753086417,0,0,0.08086419753086417,37.11666666666665,0)" xlink:href="#ae"/><use transform="matrix(0.08086419753086417,0,0,0.08086419753086417,53.28950617283949,0)" xlink:href="#W"/><use transform="matrix(0.08086419753086417,0,0,0.08086419753086417,61.375925925925905,0)" xlink:href="#Q"/><use transform="matrix(0.08086419753086417,0,0,0.08086419753086417,67.76419753086418,0)" xlink:href="#ac"/><use transform="matrix(0.08086419753086417,0,0,0.08086419753086417,83.93703703703702,0)" xlink:href="#X"/><use transform="matrix(0.08086419753086417,0,0,0.08086419753086417,100.10987654320985,0)" xlink:href="#aa"/></g><path fill="#333" d="M30 0v-248h33v221h125V0H30" id="af"/><g id="f"><use transform="matrix(0.08086419753086417,0,0,0.08086419753086417,0,0)" xlink:href="#af"/><use transform="matrix(0.08086419753086417,0,0,0.08086419753086417,16.172839506172835,0)" xlink:href="#ac"/><use transform="matrix(0.08086419753086417,0,0,0.08086419753086417,32.34567901234567,0)" xlink:href="#ad"/><use transform="matrix(0.08086419753086417,0,0,0.08086419753086417,46.90123456790122,0)" xlink:href="#ae"/><use transform="matrix(0.08086419753086417,0,0,0.08086419753086417,63.074074074074055,0)" xlink:href="#W"/><use transform="matrix(0.08086419753086417,0,0,0.08086419753086417,71.16049382716048,0)" xlink:href="#Q"/><use transform="matrix(0.08086419753086417,0,0,0.08086419753086417,77.54876543209875,0)" xlink:href="#ac"/><use transform="matrix(0.08086419753086417,0,0,0.08086419753086417,93.72160493827157,0)" xlink:href="#X"/></g><path fill="#333" d="M210-169c-67 3-38 105-44 169h-31v-121c0-29-5-50-35-48C34-165 62-65 56 0H25l-1-190h30c1 10-1 24 2 32 10-44 99-50 107 0 11-21 27-35 58-36 85-2 47 119 55 194h-31v-121c0-29-5-49-35-48" id="ag"/><path fill="#333" d="M100-194c63 0 86 42 84 106H49c0 40 14 67 53 68 26 1 43-12 49-29l28 8c-11 28-37 45-77 45C44 4 14-33 15-96c1-61 26-98 85-98zm52 81c6-60-76-77-97-28-3 7-6 17-6 28h103" id="ah"/><g id="g"><use transform="matrix(0.08086419753086417,0,0,0.08086419753086417,0,0)" xlink:href="#W"/><use transform="matrix(0.08086419753086417,0,0,0.08086419753086417,8.086419753086417,0)" xlink:href="#Q"/><use transform="matrix(0.08086419753086417,0,0,0.08086419753086417,14.474691358024687,0)" xlink:href="#ag"/><use transform="matrix(0.08086419753086417,0,0,0.08086419753086417,38.65308641975307,0)" xlink:href="#ah"/><use transform="matrix(0.08086419753086417,0,0,0.08086419753086417,54.82592592592591,0)" xlink:href="#aa"/></g><g id="h"><use transform="matrix(0.08086419753086417,0,0,0.08086419753086417,0,0)" xlink:href="#ab"/><use transform="matrix(0.08086419753086417,0,0,0.08086419753086417,6.38827160493827,0)" xlink:href="#ac"/><use transform="matrix(0.08086419753086417,0,0,0.08086419753086417,22.561111111111103,0)" xlink:href="#X"/><use transform="matrix(0.08086419753086417,0,0,0.08086419753086417,38.73395061728394,0)" xlink:href="#U"/></g><g id="i"><use transform="matrix(0.08086419753086417,0,0,0.08086419753086417,0,0)" xlink:href="#P"/><use transform="matrix(0.08086419753086417,0,0,0.08086419753086417,19.4074074074074,0)" xlink:href="#Q"/><use transform="matrix(0.08086419753086417,0,0,0.08086419753086417,25.79567901234567,0)" xlink:href="#R"/><use transform="matrix(0.08086419753086417,0,0,0.08086419753086417,35.41851851851851,0)" xlink:href="#S"/></g><g id="j"><use transform="matrix(0.08086419753086417,0,0,0.08086419753086417,0,0)" xlink:href="#X"/><use transform="matrix(0.08086419753086417,0,0,0.08086419753086417,16.172839506172835,0)" xlink:href="#ae"/><use transform="matrix(0.08086419753086417,0,0,0.08086419753086417,32.34567901234567,0)" xlink:href="#ag"/><use transform="matrix(0.08086419753086417,0,0,0.08086419753086417,56.52407407407406,0)" xlink:href="#ah"/><use transform="matrix(0.08086419753086417,0,0,0.08086419753086417,72.6969135802469,0)" xlink:href="#aa"/></g><path fill="#333" d="M135-143c-3-34-86-38-87 0 15 53 115 12 119 90S17 21 10-45l28-5c4 36 97 45 98 0-10-56-113-15-118-90-4-57 82-63 122-42 12 7 21 19 24 35" id="ai"/><g id="k"><use transform="matrix(0.08086419753086417,0,0,0.08086419753086417,0,0)" xlink:href="#ai"/><use transform="matrix(0.08086419753086417,0,0,0.08086419753086417,14.55555555555555,0)" xlink:href="#W"/><use transform="matrix(0.08086419753086417,0,0,0.08086419753086417,22.641975308641968,0)" xlink:href="#R"/><use transform="matrix(0.08086419753086417,0,0,0.08086419753086417,32.264814814814805,0)" xlink:href="#Q"/><use transform="matrix(0.08086419753086417,0,0,0.08086419753086417,38.65308641975307,0)" xlink:href="#X"/><use transform="matrix(0.08086419753086417,0,0,0.08086419753086417,54.82592592592591,0)" xlink:href="#U"/></g><path fill="#333" d="M101-234c-31-9-42 10-38 44h38v23H63V0H32v-167H5v-23h27c-7-52 17-82 69-68v24" id="aj"/><path fill="#333" d="M179-190L93 31C79 59 56 82 12 73V49c39 6 53-20 64-50L1-190h34L92-34l54-156h33" id="ak"/><g id="l"><use transform="matrix(0.08086419753086417,0,0,0.08086419753086417,0,0)" xlink:href="#aj"/><use transform="matrix(0.08086419753086417,0,0,0.08086419753086417,8.086419753086417,0)" xlink:href="#ae"/><use transform="matrix(0.08086419753086417,0,0,0.08086419753086417,24.259259259259252,0)" xlink:href="#ag"/><use transform="matrix(0.08086419753086417,0,0,0.08086419753086417,48.43765432098764,0)" xlink:href="#Q"/><use transform="matrix(0.08086419753086417,0,0,0.08086419753086417,54.82592592592591,0)" xlink:href="#ab"/><use transform="matrix(0.08086419753086417,0,0,0.08086419753086417,61.214197530864176,0)" xlink:href="#ak"/><use transform="matrix(0.08086419753086417,0,0,0.08086419753086417,75.76975308641973,0)" xlink:href="#aa"/></g><path fill="#333" d="M30-248c87 1 191-15 191 75 0 78-77 80-158 76V0H30v-248zm33 125c57 0 124 11 124-50 0-59-68-47-124-48v98" id="al"/><g id="m"><use transform="matrix(0.08086419753086417,0,0,0.08086419753086417,0,0)" xlink:href="#Q"/><use transform="matrix(0.08086419753086417,0,0,0.08086419753086417,6.38827160493827,0)" xlink:href="#ag"/><use transform="matrix(0.08086419753086417,0,0,0.08086419753086417,30.566666666666656,0)" xlink:href="#ae"/><use transform="matrix(0.08086419753086417,0,0,0.08086419753086417,46.73950617283949,0)" xlink:href="#U"/><use transform="matrix(0.08086419753086417,0,0,0.08086419753086417,62.912345679012326,0)" xlink:href="#ah"/><use transform="matrix(0.08086419753086417,0,0,0.08086419753086417,79.08518518518517,0)" xlink:href="#al"/><use transform="matrix(0.08086419753086417,0,0,0.08086419753086417,98.49259259259257,0)" xlink:href="#ae"/><use transform="matrix(0.08086419753086417,0,0,0.08086419753086417,114.66543209876541,0)" xlink:href="#W"/><use transform="matrix(0.08086419753086417,0,0,0.08086419753086417,122.75185185185182,0)" xlink:href="#V"/><use transform="matrix(0.08086419753086417,0,0,0.08086419753086417,138.92469135802466,0)" xlink:href="#aa"/></g><g id="n"><use transform="matrix(0.08086419753086417,0,0,0.08086419753086417,0,0)" xlink:href="#ad"/><use transform="matrix(0.08086419753086417,0,0,0.08086419753086417,14.55555555555555,0)" xlink:href="#ac"/><use transform="matrix(0.08086419753086417,0,0,0.08086419753086417,30.728395061728385,0)" xlink:href="#ab"/><use transform="matrix(0.08086419753086417,0,0,0.08086419753086417,37.11666666666665,0)" xlink:href="#ac"/><use transform="matrix(0.08086419753086417,0,0,0.08086419753086417,53.28950617283949,0)" xlink:href="#R"/><use transform="matrix(0.08086419753086417,0,0,0.08086419753086417,62.912345679012326,0)" xlink:href="#aa"/></g><path fill="#333" d="M9 0v-24l116-142H16v-24h144v24L44-24h123V0H9" id="am"/><g id="o"><use transform="matrix(0.08086419753086417,0,0,0.08086419753086417,0,0)" xlink:href="#ai"/><use transform="matrix(0.08086419753086417,0,0,0.08086419753086417,14.55555555555555,0)" xlink:href="#Q"/><use transform="matrix(0.08086419753086417,0,0,0.08086419753086417,20.94382716049382,0)" xlink:href="#am"/><use transform="matrix(0.08086419753086417,0,0,0.08086419753086417,35.49938271604937,0)" xlink:href="#ah"/><use transform="matrix(0.08086419753086417,0,0,0.08086419753086417,51.6722222222222,0)" xlink:href="#aa"/></g><g id="p"><use transform="matrix(0.08086419753086417,0,0,0.08086419753086417,0,0)" xlink:href="#Q"/><use transform="matrix(0.08086419753086417,0,0,0.08086419753086417,6.38827160493827,0)" xlink:href="#X"/><use transform="matrix(0.08086419753086417,0,0,0.08086419753086417,22.561111111111103,0)" xlink:href="#W"/></g><g id="q"><use transform="matrix(0.08086419753086417,0,0,0.08086419753086417,0,0)" xlink:href="#af"/><use transform="matrix(0.08086419753086417,0,0,0.08086419753086417,16.172839506172835,0)" xlink:href="#ac"/><use transform="matrix(0.08086419753086417,0,0,0.08086419753086417,32.34567901234567,0)" xlink:href="#ad"/><use transform="matrix(0.08086419753086417,0,0,0.08086419753086417,46.90123456790122,0)" xlink:href="#ae"/><use transform="matrix(0.08086419753086417,0,0,0.08086419753086417,63.074074074074055,0)" xlink:href="#W"/><use transform="matrix(0.08086419753086417,0,0,0.08086419753086417,71.16049382716048,0)" xlink:href="#Q"/><use transform="matrix(0.08086419753086417,0,0,0.08086419753086417,77.54876543209875,0)" xlink:href="#ac"/><use transform="matrix(0.08086419753086417,0,0,0.08086419753086417,93.72160493827157,0)" xlink:href="#X"/></g><g id="r"><use transform="matrix(0.08086419753086417,0,0,0.08086419753086417,0,0)" xlink:href="#ab"/><use transform="matrix(0.08086419753086417,0,0,0.08086419753086417,6.38827160493827,0)" xlink:href="#ae"/><use transform="matrix(0.08086419753086417,0,0,0.08086419753086417,22.561111111111103,0)" xlink:href="#W"/><use transform="matrix(0.08086419753086417,0,0,0.08086419753086417,30.64753086419752,0)" xlink:href="#aa"/></g><path fill="#333" d="M84 4C-5 8 30-112 23-190h32v120c0 31 7 50 39 49 72-2 45-101 50-169h31l1 190h-30c-1-10 1-25-2-33-11 22-28 36-60 37" id="an"/><g id="s"><use transform="matrix(0.08086419753086417,0,0,0.08086419753086417,0,0)" xlink:href="#S"/><use transform="matrix(0.08086419753086417,0,0,0.08086419753086417,16.172839506172835,0)" xlink:href="#ac"/><use transform="matrix(0.08086419753086417,0,0,0.08086419753086417,32.34567901234567,0)" xlink:href="#an"/><use transform="matrix(0.08086419753086417,0,0,0.08086419753086417,48.518518518518505,0)" xlink:href="#Z"/><use transform="matrix(0.08086419753086417,0,0,0.08086419753086417,64.69135802469134,0)" xlink:href="#ab"/><use transform="matrix(0.08086419753086417,0,0,0.08086419753086417,71.07962962962961,0)" xlink:href="#ah"/></g><g id="t"><use transform="matrix(0.08086419753086417,0,0,0.08086419753086417,0,0)" xlink:href="#ab"/><use transform="matrix(0.08086419753086417,0,0,0.08086419753086417,6.38827160493827,0)" xlink:href="#ac"/><use transform="matrix(0.08086419753086417,0,0,0.08086419753086417,22.561111111111103,0)" xlink:href="#X"/><use transform="matrix(0.08086419753086417,0,0,0.08086419753086417,38.73395061728394,0)" xlink:href="#aa"/></g><g id="u"><use transform="matrix(0.08086419753086417,0,0,0.08086419753086417,0,0)" xlink:href="#S"/><use transform="matrix(0.08086419753086417,0,0,0.08086419753086417,16.172839506172835,0)" xlink:href="#ac"/><use transform="matrix(0.08086419753086417,0,0,0.08086419753086417,32.34567901234567,0)" xlink:href="#an"/><use transform="matrix(0.08086419753086417,0,0,0.08086419753086417,48.518518518518505,0)" xlink:href="#Z"/><use transform="matrix(0.08086419753086417,0,0,0.08086419753086417,64.69135802469134,0)" xlink:href="#ab"/><use transform="matrix(0.08086419753086417,0,0,0.08086419753086417,71.07962962962961,0)" xlink:href="#ah"/></g><path fill="#333" d="M18-100v-36l175-74v27L42-118l151 64v27" id="ao"/><path fill="#333" d="M30-248c118-7 216 8 213 122C240-48 200 0 122 0H30v-248zM63-27c89 8 146-16 146-99s-60-101-146-95v194" id="ap"/><path fill="#333" d="M18-27v-27l151-64-151-65v-27l175 74v36" id="aq"/><g id="v"><use transform="matrix(0.08086419753086417,0,0,0.08086419753086417,0,0)" xlink:href="#ao"/><use transform="matrix(0.08086419753086417,0,0,0.08086419753086417,16.981481481481477,0)" xlink:href="#ao"/><use transform="matrix(0.08086419753086417,0,0,0.08086419753086417,33.962962962962955,0)" xlink:href="#ap"/><use transform="matrix(0.08086419753086417,0,0,0.08086419753086417,54.90679012345677,0)" xlink:href="#ae"/><use transform="matrix(0.08086419753086417,0,0,0.08086419753086417,71.07962962962961,0)" xlink:href="#W"/><use transform="matrix(0.08086419753086417,0,0,0.08086419753086417,79.16604938271603,0)" xlink:href="#ae"/><use transform="matrix(0.08086419753086417,0,0,0.08086419753086417,95.33888888888886,0)" xlink:href="#Z"/><use transform="matrix(0.08086419753086417,0,0,0.08086419753086417,111.5117283950617,0)" xlink:href="#ae"/><use transform="matrix(0.08086419753086417,0,0,0.08086419753086417,127.68456790123453,0)" xlink:href="#ai"/><use transform="matrix(0.08086419753086417,0,0,0.08086419753086417,142.2401234567901,0)" xlink:href="#ah"/><use transform="matrix(0.08086419753086417,0,0,0.08086419753086417,158.41296296296292,0)" xlink:href="#aq"/><use transform="matrix(0.08086419753086417,0,0,0.08086419753086417,175.3944444444444,0)" xlink:href="#aq"/></g><path fill="#333" d="M118-107v75H92v-75H18v-26h74v-75h26v75h74v26h-74" id="ar"/><use transform="matrix(0.08086419753086417,0,0,0.08086419753086417,0,0)" xlink:href="#ar" id="w"/><path fill="#333" d="M240 0l2-218c-23 76-54 145-80 218h-23L58-218 59 0H30v-248h44l77 211c21-75 51-140 76-211h43V0h-30" id="as"/><path fill="#333" d="M33 0v-248h34V0H33" id="at"/><path fill="#333" d="M143 4C61 4 22-44 18-125c-5-107 100-154 193-111 17 8 29 25 37 43l-32 9c-13-25-37-40-76-40-61 0-88 39-88 99 0 61 29 100 91 101 35 0 62-11 79-27v-45h-74v-28h105v86C228-13 192 4 143 4" id="au"/><path fill="#333" d="M233-177c-1 41-23 64-60 70L243 0h-38l-65-103H63V0H30v-248c88 3 205-21 203 71zM63-129c60-2 137 13 137-47 0-61-80-42-137-45v92" id="av"/><path fill="#333" d="M205 0l-28-72H64L36 0H1l101-248h38L239 0h-34zm-38-99l-47-123c-12 45-31 82-46 123h93" id="aw"/><path fill="#333" d="M127-220V0H93v-220H8v-28h204v28h-85" id="ax"/><path fill="#333" d="M140-251c81 0 123 46 123 126C263-46 219 4 140 4 59 4 17-45 17-125s42-126 123-126zm0 227c63 0 89-41 89-101s-29-99-89-99c-61 0-89 39-89 99S79-25 140-24" id="ay"/><path fill="#333" d="M190 0L58-211 59 0H30v-248h39L202-35l-2-213h31V0h-41" id="az"/><path fill="#333" d="M-5 72V49h209v23H-5" id="aA"/><path fill="#333" d="M27 0v-27h64v-190l-56 39v-29l58-41h29v221h61V0H27" id="aB"/><path fill="#333" d="M101-251c82-7 93 87 43 132L82-64C71-53 59-42 53-27h129V0H18c2-99 128-94 128-182 0-28-16-43-45-43s-46 15-49 41l-32-3c6-41 34-60 81-64" id="aC"/><g id="x"><use transform="matrix(0.08086419753086417,0,0,0.08086419753086417,0,0)" xlink:href="#as"/><use transform="matrix(0.08086419753086417,0,0,0.08086419753086417,24.178395061728388,0)" xlink:href="#at"/><use transform="matrix(0.08086419753086417,0,0,0.08086419753086417,32.264814814814805,0)" xlink:href="#au"/><use transform="matrix(0.08086419753086417,0,0,0.08086419753086417,54.90679012345677,0)" xlink:href="#av"/><use transform="matrix(0.08086419753086417,0,0,0.08086419753086417,75.8506172839506,0)" xlink:href="#aw"/><use transform="matrix(0.08086419753086417,0,0,0.08086419753086417,93.07469135802467,0)" xlink:href="#ax"/><use transform="matrix(0.08086419753086417,0,0,0.08086419753086417,110.78395061728392,0)" xlink:href="#at"/><use transform="matrix(0.08086419753086417,0,0,0.08086419753086417,118.87037037037032,0)" xlink:href="#ay"/><use transform="matrix(0.08086419753086417,0,0,0.08086419753086417,141.5123456790123,0)" xlink:href="#az"/><use transform="matrix(0.08086419753086417,0,0,0.08086419753086417,162.4561728395061,0)" xlink:href="#aA"/><use transform="matrix(0.08086419753086417,0,0,0.08086419753086417,178.62901234567894,0)" xlink:href="#aB"/><use transform="matrix(0.08086419753086417,0,0,0.08086419753086417,194.80185185185178,0)" xlink:href="#aA"/><use transform="matrix(0.08086419753086417,0,0,0.08086419753086417,210.97469135802461,0)" xlink:href="#aC"/><use transform="matrix(0.08086419753086417,0,0,0.08086419753086417,227.14753086419745,0)" xlink:href="#aa"/></g><g id="y"><use transform="matrix(0.08086419753086417,0,0,0.08086419753086417,0,0)" xlink:href="#as"/><use transform="matrix(0.08086419753086417,0,0,0.08086419753086417,24.178395061728388,0)" xlink:href="#Q"/><use transform="matrix(0.08086419753086417,0,0,0.08086419753086417,30.566666666666656,0)" xlink:href="#U"/><use transform="matrix(0.08086419753086417,0,0,0.08086419753086417,46.73950617283949,0)" xlink:href="#R"/><use transform="matrix(0.08086419753086417,0,0,0.08086419753086417,56.36234567901233,0)" xlink:href="#ae"/><use transform="matrix(0.08086419753086417,0,0,0.08086419753086417,72.53518518518516,0)" xlink:href="#W"/><use transform="matrix(0.08086419753086417,0,0,0.08086419753086417,80.62160493827157,0)" xlink:href="#Q"/><use transform="matrix(0.08086419753086417,0,0,0.08086419753086417,87.00987654320984,0)" xlink:href="#ac"/><use transform="matrix(0.08086419753086417,0,0,0.08086419753086417,103.18271604938268,0)" xlink:href="#X"/></g><path fill="#333" d="M87 75C49 33 22-17 22-94c0-76 28-126 65-167h31c-38 41-64 92-64 168S80 34 118 75H87" id="aD"/><path fill="#333" d="M33-261c38 41 65 92 65 168S71 34 33 75H2C39 34 66-17 66-93S39-220 2-261h31" id="aE"/><g id="z"><use transform="matrix(0.08086419753086417,0,0,0.08086419753086417,0,0)" xlink:href="#Z"/><use transform="matrix(0.08086419753086417,0,0,0.08086419753086417,16.172839506172835,0)" xlink:href="#Q"/><use transform="matrix(0.08086419753086417,0,0,0.08086419753086417,22.561111111111103,0)" xlink:href="#R"/><use transform="matrix(0.08086419753086417,0,0,0.08086419753086417,32.18395061728394,0)" xlink:href="#S"/><use transform="matrix(0.08086419753086417,0,0,0.08086419753086417,48.356790123456776,0)" xlink:href="#T"/><use transform="matrix(0.08086419753086417,0,0,0.08086419753086417,67.76419753086418,0)" xlink:href="#Q"/><use transform="matrix(0.08086419753086417,0,0,0.08086419753086417,74.15246913580245,0)" xlink:href="#U"/><use transform="matrix(0.08086419753086417,0,0,0.08086419753086417,90.32530864197528,0)" xlink:href="#V"/><use transform="matrix(0.08086419753086417,0,0,0.08086419753086417,106.49814814814812,0)" xlink:href="#W"/><use transform="matrix(0.08086419753086417,0,0,0.08086419753086417,114.58456790123454,0)" xlink:href="#Q"/><use transform="matrix(0.08086419753086417,0,0,0.08086419753086417,120.9728395061728,0)" xlink:href="#X"/><use transform="matrix(0.08086419753086417,0,0,0.08086419753086417,137.14567901234562,0)" xlink:href="#U"/><use transform="matrix(0.08086419753086417,0,0,0.08086419753086417,153.31851851851846,0)" xlink:href="#ap"/><use transform="matrix(0.08086419753086417,0,0,0.08086419753086417,174.2623456790123,0)" xlink:href="#ae"/><use transform="matrix(0.08086419753086417,0,0,0.08086419753086417,190.43518518518513,0)" xlink:href="#ac"/><use transform="matrix(0.08086419753086417,0,0,0.08086419753086417,206.60802469135797,0)" xlink:href="#aD"/><use transform="matrix(0.08086419753086417,0,0,0.08086419753086417,216.23086419753076,0)" xlink:href="#aE"/></g><g id="A"><use transform="matrix(0.08086419753086417,0,0,0.08086419753086417,0,0)" xlink:href="#ad"/><use transform="matrix(0.08086419753086417,0,0,0.08086419753086417,14.55555555555555,0)" xlink:href="#ae"/><use transform="matrix(0.08086419753086417,0,0,0.08086419753086417,30.728395061728385,0)" xlink:href="#W"/><use transform="matrix(0.08086419753086417,0,0,0.08086419753086417,38.8148148148148,0)" xlink:href="#ah"/><use transform="matrix(0.08086419753086417,0,0,0.08086419753086417,54.98765432098764,0)" xlink:href="#U"/><use transform="matrix(0.08086419753086417,0,0,0.08086419753086417,71.16049382716048,0)" xlink:href="#ac"/><use transform="matrix(0.08086419753086417,0,0,0.08086419753086417,87.33333333333333,0)" xlink:href="#R"/><use transform="matrix(0.08086419753086417,0,0,0.08086419753086417,96.95617283950615,0)" xlink:href="#ak"/><use transform="matrix(0.08086419753086417,0,0,0.08086419753086417,111.51172839506171,0)" xlink:href="#ap"/><use transform="matrix(0.08086419753086417,0,0,0.08086419753086417,132.45555555555552,0)" xlink:href="#ae"/><use transform="matrix(0.08086419753086417,0,0,0.08086419753086417,148.62839506172836,0)" xlink:href="#ac"/><use transform="matrix(0.08086419753086417,0,0,0.08086419753086417,164.8012345679012,0)" xlink:href="#aD"/><use transform="matrix(0.08086419753086417,0,0,0.08086419753086417,174.424074074074,0)" xlink:href="#aE"/></g><g id="B"><use transform="matrix(0.08086419753086417,0,0,0.08086419753086417,0,0)" xlink:href="#ao"/><use transform="matrix(0.08086419753086417,0,0,0.08086419753086417,16.981481481481477,0)" xlink:href="#ao"/><use transform="matrix(0.08086419753086417,0,0,0.08086419753086417,33.962962962962955,0)" xlink:href="#P"/><use transform="matrix(0.08086419753086417,0,0,0.08086419753086417,53.37037037037035,0)" xlink:href="#Q"/><use transform="matrix(0.08086419753086417,0,0,0.08086419753086417,59.75864197530862,0)" xlink:href="#R"/><use transform="matrix(0.08086419753086417,0,0,0.08086419753086417,69.38148148148146,0)" xlink:href="#S"/><use transform="matrix(0.08086419753086417,0,0,0.08086419753086417,85.5543209876543,0)" xlink:href="#T"/><use transform="matrix(0.08086419753086417,0,0,0.08086419753086417,104.9617283950617,0)" xlink:href="#Q"/><use transform="matrix(0.08086419753086417,0,0,0.08086419753086417,111.34999999999997,0)" xlink:href="#U"/><use transform="matrix(0.08086419753086417,0,0,0.08086419753086417,127.5228395061728,0)" xlink:href="#V"/><use transform="matrix(0.08086419753086417,0,0,0.08086419753086417,143.69567901234564,0)" xlink:href="#W"/><use transform="matrix(0.08086419753086417,0,0,0.08086419753086417,151.78209876543207,0)" xlink:href="#Q"/><use transform="matrix(0.08086419753086417,0,0,0.08086419753086417,158.17037037037034,0)" xlink:href="#X"/><use transform="matrix(0.08086419753086417,0,0,0.08086419753086417,174.34320987654314,0)" xlink:href="#U"/><use transform="matrix(0.08086419753086417,0,0,0.08086419753086417,190.51604938271603,0)" xlink:href="#ap"/><use transform="matrix(0.08086419753086417,0,0,0.08086419753086417,211.45987654320982,0)" xlink:href="#ae"/><use transform="matrix(0.08086419753086417,0,0,0.08086419753086417,227.63271604938265,0)" xlink:href="#ac"/><use transform="matrix(0.08086419753086417,0,0,0.08086419753086417,243.8055555555555,0)" xlink:href="#aq"/><use transform="matrix(0.08086419753086417,0,0,0.08086419753086417,260.78703703703695,0)" xlink:href="#aq"/></g><g id="C"><use transform="matrix(0.08086419753086417,0,0,0.08086419753086417,0,0)" xlink:href="#U"/><use transform="matrix(0.08086419753086417,0,0,0.08086419753086417,16.172839506172835,0)" xlink:href="#ah"/><use transform="matrix(0.08086419753086417,0,0,0.08086419753086417,32.34567901234567,0)" xlink:href="#W"/><use transform="matrix(0.08086419753086417,0,0,0.08086419753086417,40.43209876543209,0)" xlink:href="#aw"/><use transform="matrix(0.08086419753086417,0,0,0.08086419753086417,59.83950617283949,0)" xlink:href="#ab"/><use transform="matrix(0.08086419753086417,0,0,0.08086419753086417,66.22777777777776,0)" xlink:href="#ab"/><use transform="matrix(0.08086419753086417,0,0,0.08086419753086417,72.61604938271603,0)" xlink:href="#aD"/><use transform="matrix(0.08086419753086417,0,0,0.08086419753086417,82.23888888888887,0)" xlink:href="#aE"/></g><g id="D"><use transform="matrix(0.08086419753086417,0,0,0.08086419753086417,0,0)" xlink:href="#Q"/><use transform="matrix(0.08086419753086417,0,0,0.08086419753086417,6.38827160493827,0)" xlink:href="#X"/><use transform="matrix(0.08086419753086417,0,0,0.08086419753086417,22.561111111111103,0)" xlink:href="#ai"/><use transform="matrix(0.08086419753086417,0,0,0.08086419753086417,37.11666666666665,0)" xlink:href="#ah"/><use transform="matrix(0.08086419753086417,0,0,0.08086419753086417,53.28950617283949,0)" xlink:href="#R"/><use transform="matrix(0.08086419753086417,0,0,0.08086419753086417,62.912345679012326,0)" xlink:href="#W"/><use transform="matrix(0.08086419753086417,0,0,0.08086419753086417,70.99876543209874,0)" xlink:href="#aD"/><use transform="matrix(0.08086419753086417,0,0,0.08086419753086417,80.62160493827157,0)" xlink:href="#aE"/></g><g id="E"><use transform="matrix(0.08086419753086417,0,0,0.08086419753086417,0,0)" xlink:href="#aj"/><use transform="matrix(0.08086419753086417,0,0,0.08086419753086417,8.086419753086417,0)" xlink:href="#Q"/><use transform="matrix(0.08086419753086417,0,0,0.08086419753086417,14.474691358024687,0)" xlink:href="#X"/><use transform="matrix(0.08086419753086417,0,0,0.08086419753086417,30.64753086419752,0)" xlink:href="#S"/><use transform="matrix(0.08086419753086417,0,0,0.08086419753086417,46.820370370370355,0)" xlink:href="#T"/><use transform="matrix(0.08086419753086417,0,0,0.08086419753086417,66.22777777777776,0)" xlink:href="#Q"/><use transform="matrix(0.08086419753086417,0,0,0.08086419753086417,72.61604938271603,0)" xlink:href="#ag"/><use transform="matrix(0.08086419753086417,0,0,0.08086419753086417,96.79444444444444,0)" xlink:href="#Q"/><use transform="matrix(0.08086419753086417,0,0,0.08086419753086417,103.18271604938268,0)" xlink:href="#ab"/><use transform="matrix(0.08086419753086417,0,0,0.08086419753086417,109.57098765432094,0)" xlink:href="#ae"/><use transform="matrix(0.08086419753086417,0,0,0.08086419753086417,125.74382716049378,0)" xlink:href="#R"/><use transform="matrix(0.08086419753086417,0,0,0.08086419753086417,135.36666666666662,0)" xlink:href="#aD"/><use transform="matrix(0.08086419753086417,0,0,0.08086419753086417,144.98950617283944,0)" xlink:href="#aE"/></g><path fill="#333" d="M212-179c-10-28-35-45-73-45-59 0-87 40-87 99 0 60 29 101 89 101 43 0 62-24 78-52l27 14C228-24 195 4 139 4 59 4 22-46 18-125c-6-104 99-153 187-111 19 9 31 26 39 46" id="aF"/><g id="F"><use transform="matrix(0.08086419753086417,0,0,0.08086419753086417,0,0)" xlink:href="#ao"/><use transform="matrix(0.08086419753086417,0,0,0.08086419753086417,16.981481481481477,0)" xlink:href="#ao"/><use transform="matrix(0.08086419753086417,0,0,0.08086419753086417,33.962962962962955,0)" xlink:href="#aF"/><use transform="matrix(0.08086419753086417,0,0,0.08086419753086417,54.90679012345677,0)" xlink:href="#ae"/><use transform="matrix(0.08086419753086417,0,0,0.08086419753086417,71.07962962962961,0)" xlink:href="#W"/><use transform="matrix(0.08086419753086417,0,0,0.08086419753086417,79.16604938271603,0)" xlink:href="#ah"/><use transform="matrix(0.08086419753086417,0,0,0.08086419753086417,95.33888888888886,0)" xlink:href="#U"/><use transform="matrix(0.08086419753086417,0,0,0.08086419753086417,111.5117283950617,0)" xlink:href="#ac"/><use transform="matrix(0.08086419753086417,0,0,0.08086419753086417,127.68456790123453,0)" xlink:href="#R"/><use transform="matrix(0.08086419753086417,0,0,0.08086419753086417,137.30740740740737,0)" xlink:href="#ak"/><use transform="matrix(0.08086419753086417,0,0,0.08086419753086417,151.8629629629629,0)" xlink:href="#ap"/><use transform="matrix(0.08086419753086417,0,0,0.08086419753086417,172.80679012345672,0)" xlink:href="#ae"/><use transform="matrix(0.08086419753086417,0,0,0.08086419753086417,188.97962962962956,0)" xlink:href="#ac"/><use transform="matrix(0.08086419753086417,0,0,0.08086419753086417,205.1524691358024,0)" xlink:href="#aq"/><use transform="matrix(0.08086419753086417,0,0,0.08086419753086417,222.13395061728383,0)" xlink:href="#aq"/></g><g id="G"><use transform="matrix(0.08086419753086417,0,0,0.08086419753086417,0,0)" xlink:href="#U"/><use transform="matrix(0.08086419753086417,0,0,0.08086419753086417,16.172839506172835,0)" xlink:href="#ah"/><use transform="matrix(0.08086419753086417,0,0,0.08086419753086417,32.34567901234567,0)" xlink:href="#W"/><use transform="matrix(0.08086419753086417,0,0,0.08086419753086417,40.43209876543209,0)" xlink:href="#az"/><use transform="matrix(0.08086419753086417,0,0,0.08086419753086417,61.37592592592591,0)" xlink:href="#an"/><use transform="matrix(0.08086419753086417,0,0,0.08086419753086417,77.54876543209875,0)" xlink:href="#ag"/><use transform="matrix(0.08086419753086417,0,0,0.08086419753086417,101.72716049382714,0)" xlink:href="#ap"/><use transform="matrix(0.08086419753086417,0,0,0.08086419753086417,122.67098765432097,0)" xlink:href="#ah"/><use transform="matrix(0.08086419753086417,0,0,0.08086419753086417,138.8438271604938,0)" xlink:href="#aj"/><use transform="matrix(0.08086419753086417,0,0,0.08086419753086417,146.93024691358022,0)" xlink:href="#ae"/><use transform="matrix(0.08086419753086417,0,0,0.08086419753086417,163.10308641975305,0)" xlink:href="#an"/><use transform="matrix(0.08086419753086417,0,0,0.08086419753086417,179.2759259259259,0)" xlink:href="#ab"/><use transform="matrix(0.08086419753086417,0,0,0.08086419753086417,185.6641975308642,0)" xlink:href="#W"/><use transform="matrix(0.08086419753086417,0,0,0.08086419753086417,193.7506172839506,0)" xlink:href="#aD"/><use transform="matrix(0.08086419753086417,0,0,0.08086419753086417,203.3734567901234,0)" xlink:href="#aE"/></g><g id="H"><use transform="matrix(0.08086419753086417,0,0,0.08086419753086417,0,0)" xlink:href="#U"/><use transform="matrix(0.08086419753086417,0,0,0.08086419753086417,16.172839506172835,0)" xlink:href="#ah"/><use transform="matrix(0.08086419753086417,0,0,0.08086419753086417,32.34567901234567,0)" xlink:href="#W"/><use transform="matrix(0.08086419753086417,0,0,0.08086419753086417,40.43209876543209,0)" xlink:href="#az"/><use transform="matrix(0.08086419753086417,0,0,0.08086419753086417,61.37592592592591,0)" xlink:href="#an"/><use transform="matrix(0.08086419753086417,0,0,0.08086419753086417,77.54876543209875,0)" xlink:href="#ag"/><use transform="matrix(0.08086419753086417,0,0,0.08086419753086417,101.72716049382714,0)" xlink:href="#aF"/><use transform="matrix(0.08086419753086417,0,0,0.08086419753086417,122.67098765432097,0)" xlink:href="#ae"/><use transform="matrix(0.08086419753086417,0,0,0.08086419753086417,138.8438271604938,0)" xlink:href="#W"/><use transform="matrix(0.08086419753086417,0,0,0.08086419753086417,146.93024691358022,0)" xlink:href="#ah"/><use transform="matrix(0.08086419753086417,0,0,0.08086419753086417,163.10308641975305,0)" xlink:href="#U"/><use transform="matrix(0.08086419753086417,0,0,0.08086419753086417,179.2759259259259,0)" xlink:href="#ac"/><use transform="matrix(0.08086419753086417,0,0,0.08086419753086417,195.44876543209872,0)" xlink:href="#R"/><use transform="matrix(0.08086419753086417,0,0,0.08086419753086417,205.07160493827155,0)" xlink:href="#Q"/><use transform="matrix(0.08086419753086417,0,0,0.08086419753086417,211.45987654320982,0)" xlink:href="#ah"/><use transform="matrix(0.08086419753086417,0,0,0.08086419753086417,227.63271604938265,0)" xlink:href="#ai"/><use transform="matrix(0.08086419753086417,0,0,0.08086419753086417,242.1882716049382,0)" xlink:href="#aD"/><use transform="matrix(0.08086419753086417,0,0,0.08086419753086417,251.81111111111102,0)" xlink:href="#aE"/></g><path fill="#333" d="M115-194c55 1 70 41 70 98S169 2 115 4C84 4 66-9 55-30l1 105H24l-1-265h31l2 30c10-21 28-34 59-34zm-8 174c40 0 45-34 45-75s-6-73-45-74c-42 0-51 32-51 76 0 43 10 73 51 73" id="aG"/><g id="I"><use transform="matrix(0.08086419753086417,0,0,0.08086419753086417,0,0)" xlink:href="#aG"/><use transform="matrix(0.08086419753086417,0,0,0.08086419753086417,16.172839506172835,0)" xlink:href="#ac"/><use transform="matrix(0.08086419753086417,0,0,0.08086419753086417,32.34567901234567,0)" xlink:href="#aG"/><use transform="matrix(0.08086419753086417,0,0,0.08086419753086417,48.518518518518505,0)" xlink:href="#an"/><use transform="matrix(0.08086419753086417,0,0,0.08086419753086417,64.69135802469134,0)" xlink:href="#ab"/><use transform="matrix(0.08086419753086417,0,0,0.08086419753086417,71.07962962962961,0)" xlink:href="#ae"/><use transform="matrix(0.08086419753086417,0,0,0.08086419753086417,87.25246913580244,0)" xlink:href="#W"/><use transform="matrix(0.08086419753086417,0,0,0.08086419753086417,95.33888888888886,0)" xlink:href="#ah"/><use transform="matrix(0.08086419753086417,0,0,0.08086419753086417,111.5117283950617,0)" xlink:href="#ap"/><use transform="matrix(0.08086419753086417,0,0,0.08086419753086417,132.45555555555552,0)" xlink:href="#ah"/><use transform="matrix(0.08086419753086417,0,0,0.08086419753086417,148.62839506172836,0)" xlink:href="#aj"/><use transform="matrix(0.08086419753086417,0,0,0.08086419753086417,156.71481481481476,0)" xlink:href="#ae"/><use transform="matrix(0.08086419753086417,0,0,0.08086419753086417,172.8876543209876,0)" xlink:href="#an"/><use transform="matrix(0.08086419753086417,0,0,0.08086419753086417,189.06049382716043,0)" xlink:href="#ab"/><use transform="matrix(0.08086419753086417,0,0,0.08086419753086417,195.4487654320987,0)" xlink:href="#W"/><use transform="matrix(0.08086419753086417,0,0,0.08086419753086417,203.53518518518513,0)" xlink:href="#ai"/><use transform="matrix(0.08086419753086417,0,0,0.08086419753086417,218.09074074074067,0)" xlink:href="#aD"/><use transform="matrix(0.08086419753086417,0,0,0.08086419753086417,227.7135802469135,0)" xlink:href="#aE"/></g><g id="J"><use transform="matrix(0.08086419753086417,0,0,0.08086419753086417,0,0)" xlink:href="#aF"/><use transform="matrix(0.08086419753086417,0,0,0.08086419753086417,20.94382716049382,0)" xlink:href="#ae"/><use transform="matrix(0.08086419753086417,0,0,0.08086419753086417,37.11666666666666,0)" xlink:href="#W"/><use transform="matrix(0.08086419753086417,0,0,0.08086419753086417,45.20308641975308,0)" xlink:href="#ah"/><use transform="matrix(0.08086419753086417,0,0,0.08086419753086417,61.37592592592591,0)" xlink:href="#U"/><use transform="matrix(0.08086419753086417,0,0,0.08086419753086417,77.54876543209875,0)" xlink:href="#ac"/><use transform="matrix(0.08086419753086417,0,0,0.08086419753086417,93.72160493827157,0)" xlink:href="#R"/><use transform="matrix(0.08086419753086417,0,0,0.08086419753086417,103.34444444444443,0)" xlink:href="#ak"/></g><g id="K"><use transform="matrix(0.08086419753086417,0,0,0.08086419753086417,0,0)" xlink:href="#Q"/><use transform="matrix(0.08086419753086417,0,0,0.08086419753086417,6.38827160493827,0)" xlink:href="#S"/><use transform="matrix(0.08086419753086417,0,0,0.08086419753086417,22.561111111111103,0)" xlink:href="#aa"/></g><g id="L"><use transform="matrix(0.08086419753086417,0,0,0.08086419753086417,0,0)" xlink:href="#Q"/><use transform="matrix(0.08086419753086417,0,0,0.08086419753086417,6.38827160493827,0)" xlink:href="#X"/><use transform="matrix(0.08086419753086417,0,0,0.08086419753086417,22.561111111111103,0)" xlink:href="#W"/></g><g id="M"><use transform="matrix(0.08086419753086417,0,0,0.08086419753086417,0,0)" xlink:href="#Q"/><use transform="matrix(0.08086419753086417,0,0,0.08086419753086417,6.38827160493827,0)" xlink:href="#ai"/><use transform="matrix(0.08086419753086417,0,0,0.08086419753086417,20.94382716049382,0)" xlink:href="#ap"/><use transform="matrix(0.08086419753086417,0,0,0.08086419753086417,41.88765432098764,0)" xlink:href="#ah"/><use transform="matrix(0.08086419753086417,0,0,0.08086419753086417,58.06049382716048,0)" xlink:href="#aj"/><use transform="matrix(0.08086419753086417,0,0,0.08086419753086417,66.14691358024689,0)" xlink:href="#ae"/><use transform="matrix(0.08086419753086417,0,0,0.08086419753086417,82.31975308641972,0)" xlink:href="#an"/><use transform="matrix(0.08086419753086417,0,0,0.08086419753086417,98.49259259259256,0)" xlink:href="#ab"/><use transform="matrix(0.08086419753086417,0,0,0.08086419753086417,104.88086419753083,0)" xlink:href="#W"/><use transform="matrix(0.08086419753086417,0,0,0.08086419753086417,112.96728395061724,0)" xlink:href="#aa"/></g><g id="N"><use transform="matrix(0.08086419753086417,0,0,0.08086419753086417,0,0)" xlink:href="#Z"/><use transform="matrix(0.08086419753086417,0,0,0.08086419753086417,16.172839506172835,0)" xlink:href="#ac"/><use transform="matrix(0.08086419753086417,0,0,0.08086419753086417,32.34567901234567,0)" xlink:href="#ac"/><use transform="matrix(0.08086419753086417,0,0,0.08086419753086417,48.518518518518505,0)" xlink:href="#ab"/><use transform="matrix(0.08086419753086417,0,0,0.08086419753086417,54.90679012345677,0)" xlink:href="#ah"/><use transform="matrix(0.08086419753086417,0,0,0.08086419753086417,71.07962962962961,0)" xlink:href="#ae"/><use transform="matrix(0.08086419753086417,0,0,0.08086419753086417,87.25246913580244,0)" xlink:href="#X"/></g><g id="O"><use transform="matrix(0.08086419753086417,0,0,0.08086419753086417,0,0)" xlink:href="#ai"/><use transform="matrix(0.08086419753086417,0,0,0.08086419753086417,14.55555555555555,0)" xlink:href="#W"/><use transform="matrix(0.08086419753086417,0,0,0.08086419753086417,22.641975308641968,0)" xlink:href="#ac"/><use transform="matrix(0.08086419753086417,0,0,0.08086419753086417,38.8148148148148,0)" xlink:href="#R"/><use transform="matrix(0.08086419753086417,0,0,0.08086419753086417,48.43765432098764,0)" xlink:href="#ah"/><use transform="matrix(0.08086419753086417,0,0,0.08086419753086417,64.61049382716047,0)" xlink:href="#ai"/></g></defs></g></svg>