<svg xmlns="http://www.w3.org/2000/svg" xmlns:xlink="http://www.w3.org/1999/xlink" xmlns:lucid="lucid" width="1047.48" height="746.64"><g transform="translate(-273.68940070678366 -23.464635868440382)" lucid:page-tab-id="0_0"><path d="M0 0h1870.4v1323.2H0z" fill="#fff"/><path d="M293.7 573.1h360v177h-360z" stroke="#000" stroke-width="2" fill="#fff"/><path d="M293.7 610.7h360m-360 59.1h360" stroke="#000" stroke-width="2" fill="none"/><use xlink:href="#a" transform="matrix(1,0,0,1,301.68940070678366,581.0999999999999) translate(107.125 14.6)"/><use xlink:href="#b" transform="matrix(1,0,0,1,305.68940070678366,618.6999999999999) translate(0 25.6)"/><use xlink:href="#c" transform="matrix(1,0,0,1,305.68940070678366,618.6999999999999) translate(10.95 25.6)"/><use xlink:href="#d" transform="matrix(1,0,0,1,305.68940070678366,618.6999999999999) translate(82.8 25.6)"/><use xlink:href="#e" transform="matrix(1,0,0,1,305.68940070678366,618.6999999999999) translate(92.8 25.6)"/><use xlink:href="#f" transform="matrix(1,0,0,1,305.68940070678366,677.8) translate(0 25.299999999999997)"/><use xlink:href="#g" transform="matrix(1,0,0,1,305.68940070678366,677.8) translate(15.5 25.299999999999997)"/><use xlink:href="#f" transform="matrix(1,0,0,1,305.68940070678366,677.8) translate(0 46.9)"/><use xlink:href="#h" transform="matrix(1,0,0,1,305.68940070678366,677.8) translate(15.5 46.9)"/><path d="M962.8 573.1h316.73v177H962.8z" stroke="#000" stroke-width="2" fill="#fff"/><path d="M962.8 610.7h316.73M962.8 680.4h316.73" stroke="#000" stroke-width="2" fill="none"/><use xlink:href="#i" transform="matrix(1,0,0,1,970.8005036059126,581.0999999999999) translate(97.57499999999999 14.6)"/><use xlink:href="#b" transform="matrix(1,0,0,1,974.8005036059126,618.6999999999999) translate(0 19.799999999999997)"/><use xlink:href="#c" transform="matrix(1,0,0,1,974.8005036059126,618.6999999999999) translate(10.95 19.799999999999997)"/><use xlink:href="#d" transform="matrix(1,0,0,1,974.8005036059126,618.6999999999999) translate(82.8 19.799999999999997)"/><use xlink:href="#j" transform="matrix(1,0,0,1,974.8005036059126,618.6999999999999) translate(92.8 19.799999999999997)"/><use xlink:href="#k" transform="matrix(1,0,0,1,974.8005036059126,618.6999999999999) translate(0 41.4)"/><use xlink:href="#f" transform="matrix(1,0,0,1,974.8005036059126,688.4) translate(0 19.799999999999997)"/><use xlink:href="#g" transform="matrix(1,0,0,1,974.8005036059126,688.4) translate(15.5 19.799999999999997)"/><use xlink:href="#f" transform="matrix(1,0,0,1,974.8005036059126,688.4) translate(0 41.4)"/><use xlink:href="#h" transform="matrix(1,0,0,1,974.8005036059126,688.4) translate(15.5 41.4)"/><path d="M653.7 325.28h360v142h-360z" stroke="#000" stroke-width="2" fill="#fff"/><path d="M653.7 384.48h360" stroke="#000" stroke-width="2" fill="none"/><use xlink:href="#l" transform="matrix(1,0,0,1,661.6894007067837,333.28231793422015) translate(113.57499999999999 14.799999999999999)"/><use xlink:href="#m" transform="matrix(1,0,0,1,661.6894007067837,333.28231793422015) translate(137.075 36.4)"/><use xlink:href="#n" transform="matrix(1,0,0,1,665.6894007067837,392.48231793422013) translate(0 37.6)"/><use xlink:href="#o" transform="matrix(1,0,0,1,665.6894007067837,392.48231793422013) translate(93.45 37.6)"/><path d="M651.7 396.28h-178v145.07" stroke="#000" stroke-width="2" fill="none"/><path d="M652.7 397.28h-1.04v-2h1.03z"/><path d="M473.7 570.7l-14.86-14.86 14.85-15.15 14.84 15.14z" stroke="#000" stroke-width="2"/><path d="M1015.7 396.28h105.47v145.07" stroke="#000" stroke-width="2" fill="none"/><path d="M1015.72 397.28h-1.03v-2h1.02z"/><path d="M1121.17 570.7l-14.85-14.86 14.85-15.15 14.85 15.14z" stroke="#000" stroke-width="2"/><path d="M386.18 43.46h360v176h-360z" stroke="#000" stroke-width="2" fill="#fff"/><path d="M386.18 81.06h360" stroke="#000" stroke-width="2" fill="none"/><g><use xlink:href="#p" transform="matrix(1,0,0,1,394.18411700676967,51.46463586844038) translate(113.14999999999999 14.6)"/></g><g><use xlink:href="#n" transform="matrix(1,0,0,1,398.18411700676967,89.06463586844038) translate(0 65.10000000000001)"/><use xlink:href="#o" transform="matrix(1,0,0,1,398.18411700676967,89.06463586844038) translate(93.45 65.10000000000001)"/></g><path d="M941.17 43.46h360v176h-360z" stroke="#000" stroke-width="2" fill="#fff"/><path d="M941.17 81.06h360" stroke="#000" stroke-width="2" fill="none"/><g><use xlink:href="#q" transform="matrix(1,0,0,1,949.1674666009953,51.46463586844038) translate(106.14999999999999 14.6)"/></g><g><use xlink:href="#n" transform="matrix(1,0,0,1,953.1674666009953,89.06463586844038) translate(0 65.10000000000001)"/><use xlink:href="#o" transform="matrix(1,0,0,1,953.1674666009953,89.06463586844038) translate(93.45 65.10000000000001)"/></g><path d="M566.18 221.46v44.87h137.9v39.45" stroke="#000" stroke-width="2" fill="none"/><path d="M567.18 221.5h-2v-1.04h2z"/><path d="M704.07 321.05l-4.63-14.27h9.27z" stroke="#000" stroke-width="2" fill="#fff"/><path d="M1121.17 221.46v50.9h-188.6v33.42" stroke="#000" stroke-width="2" fill="none"/><path d="M1122.17 221.5h-2v-1.04h2z"/><path d="M932.57 321.05l-4.63-14.27h9.27z" stroke="#000" stroke-width="2" fill="#fff"/><defs><path d="M160-131c35 5 61 23 61 61C221 17 115-2 30 0v-248c76 3 177-17 177 60 0 33-19 50-47 57zm-97-11c50-1 110 9 110-42 0-47-63-36-110-37v79zm0 115c55-2 124 14 124-45 0-56-70-42-124-44v89" id="r"/><path d="M24-231v-30h32v30H24zM24 0v-190h32V0H24" id="s"/><path d="M114-163C36-179 61-72 57 0H25l-1-190h30c1 12-1 29 2 39 6-27 23-49 58-41v29" id="t"/><path d="M85-194c31 0 48 13 60 33l-1-100h32l1 261h-30c-2-10 0-23-3-31C134-8 116 4 85 4 32 4 16-35 15-94c0-66 23-100 70-100zm9 24c-40 0-46 34-46 75 0 40 6 74 45 74 42 0 51-32 51-76 0-42-9-74-50-73" id="u"/><path d="M185-189c-5-48-123-54-124 2 14 75 158 14 163 119 3 78-121 87-175 55-17-10-28-26-33-46l33-7c5 56 141 63 141-1 0-78-155-14-162-118-5-82 145-84 179-34 5 7 8 16 11 25" id="v"/><path d="M177-190C167-65 218 103 67 71c-23-6-38-20-44-43l32-5c15 47 100 32 89-28v-30C133-14 115 1 83 1 29 1 15-40 15-95c0-56 16-97 71-98 29-1 48 16 59 35 1-10 0-23 2-32h30zM94-22c36 0 50-32 50-73 0-42-14-75-50-75-39 0-46 34-46 75s6 73 46 73" id="w"/><path d="M106-169C34-169 62-67 57 0H25v-261h32l-1 103c12-21 28-36 61-36 89 0 53 116 60 194h-32v-121c2-32-8-49-39-48" id="x"/><path d="M59-47c-2 24 18 29 38 22v24C64 9 27 4 27-40v-127H5v-23h24l9-43h21v43h35v23H59v120" id="y"/><path d="M117-194c89-4 53 116 60 194h-32v-121c0-31-8-49-39-48C34-167 62-67 57 0H25l-1-190h30c1 10-1 24 2 32 11-22 29-35 61-36" id="z"/><path d="M30-248c118-7 216 8 213 122C240-48 200 0 122 0H30v-248zM63-27c89 8 146-16 146-99s-60-101-146-95v194" id="A"/><path d="M141-36C126-15 110 5 73 4 37 3 15-17 15-53c-1-64 63-63 125-63 3-35-9-54-41-54-24 1-41 7-42 31l-33-3c5-37 33-52 76-52 45 0 72 20 72 64v82c-1 20 7 32 28 27v20c-31 9-61-2-59-35zM48-53c0 20 12 33 32 33 41-3 63-29 60-74-43 2-92-5-92 41" id="B"/><path d="M100-194c62-1 85 37 85 99 1 63-27 99-86 99S16-35 15-95c0-66 28-99 85-99zM99-20c44 1 53-31 53-75 0-43-8-75-51-75s-53 32-53 75 10 74 51 75" id="C"/><g id="a"><use transform="matrix(0.05,0,0,0.05,0,0)" xlink:href="#r"/><use transform="matrix(0.05,0,0,0.05,12,0)" xlink:href="#s"/><use transform="matrix(0.05,0,0,0.05,15.949999999999998,0)" xlink:href="#t"/><use transform="matrix(0.05,0,0,0.05,21.9,0)" xlink:href="#u"/><use transform="matrix(0.05,0,0,0.05,31.899999999999995,0)" xlink:href="#v"/><use transform="matrix(0.05,0,0,0.05,43.9,0)" xlink:href="#s"/><use transform="matrix(0.05,0,0,0.05,47.85,0)" xlink:href="#w"/><use transform="matrix(0.05,0,0,0.05,57.85,0)" xlink:href="#x"/><use transform="matrix(0.05,0,0,0.05,67.85,0)" xlink:href="#y"/><use transform="matrix(0.05,0,0,0.05,72.85,0)" xlink:href="#s"/><use transform="matrix(0.05,0,0,0.05,76.8,0)" xlink:href="#z"/><use transform="matrix(0.05,0,0,0.05,86.8,0)" xlink:href="#w"/><use transform="matrix(0.05,0,0,0.05,96.8,0)" xlink:href="#A"/><use transform="matrix(0.05,0,0,0.05,109.75,0)" xlink:href="#B"/><use transform="matrix(0.05,0,0,0.05,119.75,0)" xlink:href="#C"/></g><path d="M16-82v-28h88v28H16" id="D"/><use transform="matrix(0.05,0,0,0.05,0,0)" xlink:href="#D" id="b"/><path d="M24 0v-261h32V0H24" id="E"/><path d="M135-143c-3-34-86-38-87 0 15 53 115 12 119 90S17 21 10-45l28-5c4 36 97 45 98 0-10-56-113-15-118-90-4-57 82-63 122-42 12 7 21 19 24 35" id="F"/><path d="M100-194c63 0 86 42 84 106H49c0 40 14 67 53 68 26 1 43-12 49-29l28 8c-11 28-37 45-77 45C44 4 14-33 15-96c1-61 26-98 85-98zm52 81c6-60-76-77-97-28-3 7-6 17-6 28h103" id="G"/><g id="c"><use transform="matrix(0.05,0,0,0.05,0,0)" xlink:href="#E"/><use transform="matrix(0.05,0,0,0.05,3.95,0)" xlink:href="#s"/><use transform="matrix(0.05,0,0,0.05,7.9,0)" xlink:href="#F"/><use transform="matrix(0.05,0,0,0.05,16.9,0)" xlink:href="#y"/><use transform="matrix(0.05,0,0,0.05,21.9,0)" xlink:href="#G"/><use transform="matrix(0.05,0,0,0.05,31.899999999999995,0)" xlink:href="#z"/><use transform="matrix(0.05,0,0,0.05,41.9,0)" xlink:href="#G"/><use transform="matrix(0.05,0,0,0.05,51.900000000000006,0)" xlink:href="#t"/><use transform="matrix(0.05,0,0,0.05,57.85,0)" xlink:href="#F"/></g><path d="M33-154v-36h34v36H33zM33 0v-36h34V0H33" id="H"/><use transform="matrix(0.05,0,0,0.05,0,0)" xlink:href="#H" id="d"/><path d="M30 0v-248h33v221h125V0H30" id="I"/><path d="M18-100v-36l175-74v27L42-118l151 64v27" id="J"/><path d="M18-27v-27l151-64-151-65v-27l175 74v36" id="K"/><g id="e"><use transform="matrix(0.05,0,0,0.05,0,0)" xlink:href="#I"/><use transform="matrix(0.05,0,0,0.05,10,0)" xlink:href="#s"/><use transform="matrix(0.05,0,0,0.05,13.949999999999998,0)" xlink:href="#F"/><use transform="matrix(0.05,0,0,0.05,22.95,0)" xlink:href="#y"/><use transform="matrix(0.05,0,0,0.05,27.950000000000003,0)" xlink:href="#J"/><use transform="matrix(0.05,0,0,0.05,38.45,0)" xlink:href="#I"/><use transform="matrix(0.05,0,0,0.05,48.45,0)" xlink:href="#s"/><use transform="matrix(0.05,0,0,0.05,52.400000000000006,0)" xlink:href="#F"/><use transform="matrix(0.05,0,0,0.05,61.400000000000006,0)" xlink:href="#y"/><use transform="matrix(0.05,0,0,0.05,66.4,0)" xlink:href="#G"/><use transform="matrix(0.05,0,0,0.05,76.4,0)" xlink:href="#z"/><use transform="matrix(0.05,0,0,0.05,86.4,0)" xlink:href="#G"/><use transform="matrix(0.05,0,0,0.05,96.4,0)" xlink:href="#t"/><use transform="matrix(0.05,0,0,0.05,102.35000000000001,0)" xlink:href="#K"/></g><path d="M118-107v75H92v-75H18v-26h74v-75h26v75h74v26h-74" id="L"/><use transform="matrix(0.05,0,0,0.05,0,0)" xlink:href="#L" id="f"/><path d="M87 75C49 33 22-17 22-94c0-76 28-126 65-167h31c-38 41-64 92-64 168S80 34 118 75H87" id="M"/><path d="M33-261c38 41 65 92 65 168S71 34 33 75H2C39 34 66-17 66-93S39-220 2-261h31" id="N"/><g id="g"><use transform="matrix(0.05,0,0,0.05,0,0)" xlink:href="#B"/><use transform="matrix(0.05,0,0,0.05,10,0)" xlink:href="#u"/><use transform="matrix(0.05,0,0,0.05,20,0)" xlink:href="#u"/><use transform="matrix(0.05,0,0,0.05,30,0)" xlink:href="#I"/><use transform="matrix(0.05,0,0,0.05,40,0)" xlink:href="#s"/><use transform="matrix(0.05,0,0,0.05,43.95,0)" xlink:href="#F"/><use transform="matrix(0.05,0,0,0.05,52.95,0)" xlink:href="#y"/><use transform="matrix(0.05,0,0,0.05,57.95,0)" xlink:href="#G"/><use transform="matrix(0.05,0,0,0.05,67.95,0)" xlink:href="#z"/><use transform="matrix(0.05,0,0,0.05,77.95,0)" xlink:href="#G"/><use transform="matrix(0.05,0,0,0.05,87.95,0)" xlink:href="#t"/><use transform="matrix(0.05,0,0,0.05,93.9,0)" xlink:href="#M"/><use transform="matrix(0.05,0,0,0.05,99.85000000000001,0)" xlink:href="#E"/><use transform="matrix(0.05,0,0,0.05,103.80000000000001,0)" xlink:href="#s"/><use transform="matrix(0.05,0,0,0.05,107.75,0)" xlink:href="#F"/><use transform="matrix(0.05,0,0,0.05,116.75,0)" xlink:href="#y"/><use transform="matrix(0.05,0,0,0.05,121.75,0)" xlink:href="#G"/><use transform="matrix(0.05,0,0,0.05,131.75,0)" xlink:href="#z"/><use transform="matrix(0.05,0,0,0.05,141.75,0)" xlink:href="#G"/><use transform="matrix(0.05,0,0,0.05,151.75,0)" xlink:href="#t"/><use transform="matrix(0.05,0,0,0.05,157.7,0)" xlink:href="#N"/></g><path d="M210-169c-67 3-38 105-44 169h-31v-121c0-29-5-50-35-48C34-165 62-65 56 0H25l-1-190h30c1 10-1 24 2 32 10-44 99-50 107 0 11-21 27-35 58-36 85-2 47 119 55 194h-31v-121c0-29-5-49-35-48" id="O"/><path d="M108 0H70L1-190h34L89-25l56-165h34" id="P"/><g id="h"><use transform="matrix(0.05,0,0,0.05,0,0)" xlink:href="#t"/><use transform="matrix(0.05,0,0,0.05,5.95,0)" xlink:href="#G"/><use transform="matrix(0.05,0,0,0.05,15.949999999999998,0)" xlink:href="#O"/><use transform="matrix(0.05,0,0,0.05,30.899999999999995,0)" xlink:href="#C"/><use transform="matrix(0.05,0,0,0.05,40.9,0)" xlink:href="#P"/><use transform="matrix(0.05,0,0,0.05,49.9,0)" xlink:href="#G"/><use transform="matrix(0.05,0,0,0.05,59.900000000000006,0)" xlink:href="#E"/><use transform="matrix(0.05,0,0,0.05,63.85,0)" xlink:href="#s"/><use transform="matrix(0.05,0,0,0.05,67.8,0)" xlink:href="#F"/><use transform="matrix(0.05,0,0,0.05,76.8,0)" xlink:href="#y"/><use transform="matrix(0.05,0,0,0.05,81.8,0)" xlink:href="#G"/><use transform="matrix(0.05,0,0,0.05,91.8,0)" xlink:href="#z"/><use transform="matrix(0.05,0,0,0.05,101.8,0)" xlink:href="#G"/><use transform="matrix(0.05,0,0,0.05,111.80000000000001,0)" xlink:href="#t"/><use transform="matrix(0.05,0,0,0.05,117.75,0)" xlink:href="#M"/><use transform="matrix(0.05,0,0,0.05,123.7,0)" xlink:href="#E"/><use transform="matrix(0.05,0,0,0.05,127.65,0)" xlink:href="#s"/><use transform="matrix(0.05,0,0,0.05,131.6,0)" xlink:href="#F"/><use transform="matrix(0.05,0,0,0.05,140.6,0)" xlink:href="#y"/><use transform="matrix(0.05,0,0,0.05,145.6,0)" xlink:href="#G"/><use transform="matrix(0.05,0,0,0.05,155.6,0)" xlink:href="#z"/><use transform="matrix(0.05,0,0,0.05,165.6,0)" xlink:href="#G"/><use transform="matrix(0.05,0,0,0.05,175.6,0)" xlink:href="#t"/><use transform="matrix(0.05,0,0,0.05,181.54999999999998,0)" xlink:href="#N"/></g><path d="M212-179c-10-28-35-45-73-45-59 0-87 40-87 99 0 60 29 101 89 101 43 0 62-24 78-52l27 14C228-24 195 4 139 4 59 4 22-46 18-125c-6-104 99-153 187-111 19 9 31 26 39 46" id="Q"/><path d="M179-190L93 31C79 59 56 82 12 73V49c39 6 53-20 64-50L1-190h34L92-34l54-156h33" id="R"/><g id="i"><use transform="matrix(0.05,0,0,0.05,0,0)" xlink:href="#Q"/><use transform="matrix(0.05,0,0,0.05,12.950000000000001,0)" xlink:href="#B"/><use transform="matrix(0.05,0,0,0.05,22.950000000000003,0)" xlink:href="#y"/><use transform="matrix(0.05,0,0,0.05,27.950000000000003,0)" xlink:href="#G"/><use transform="matrix(0.05,0,0,0.05,37.95,0)" xlink:href="#w"/><use transform="matrix(0.05,0,0,0.05,47.95,0)" xlink:href="#C"/><use transform="matrix(0.05,0,0,0.05,57.95,0)" xlink:href="#t"/><use transform="matrix(0.05,0,0,0.05,63.900000000000006,0)" xlink:href="#R"/><use transform="matrix(0.05,0,0,0.05,72.9,0)" xlink:href="#A"/><use transform="matrix(0.05,0,0,0.05,85.85000000000001,0)" xlink:href="#B"/><use transform="matrix(0.05,0,0,0.05,95.85000000000001,0)" xlink:href="#C"/></g><g id="j"><use transform="matrix(0.05,0,0,0.05,0,0)" xlink:href="#I"/><use transform="matrix(0.05,0,0,0.05,10,0)" xlink:href="#s"/><use transform="matrix(0.05,0,0,0.05,13.949999999999998,0)" xlink:href="#F"/><use transform="matrix(0.05,0,0,0.05,22.95,0)" xlink:href="#y"/><use transform="matrix(0.05,0,0,0.05,27.950000000000003,0)" xlink:href="#J"/><use transform="matrix(0.05,0,0,0.05,38.45,0)" xlink:href="#I"/><use transform="matrix(0.05,0,0,0.05,48.45,0)" xlink:href="#s"/><use transform="matrix(0.05,0,0,0.05,52.400000000000006,0)" xlink:href="#F"/><use transform="matrix(0.05,0,0,0.05,61.400000000000006,0)" xlink:href="#y"/><use transform="matrix(0.05,0,0,0.05,66.4,0)" xlink:href="#G"/><use transform="matrix(0.05,0,0,0.05,76.4,0)" xlink:href="#z"/><use transform="matrix(0.05,0,0,0.05,86.4,0)" xlink:href="#G"/><use transform="matrix(0.05,0,0,0.05,96.4,0)" xlink:href="#t"/><use transform="matrix(0.05,0,0,0.05,102.35000000000001,0)" xlink:href="#K"/></g><path d="M15-91v-56l181-69v40L49-119l147 57v40" id="S"/><path d="M25-224v-37h50v37H25zM25 0v-190h50V0H25" id="T"/><path d="M135-194c87-1 58 113 63 194h-50c-7-57 23-157-34-157-59 0-34 97-39 157H25l-1-190h47c2 12-1 28 3 38 12-26 28-41 61-42" id="U"/><path d="M115-3C79 11 28 4 28-45v-112H4v-33h27l15-45h31v45h36v33H77v99c-1 23 16 31 38 25v30" id="V"/><path d="M185-48c-13 30-37 53-82 52C43 2 14-33 14-96s30-98 90-98c62 0 83 45 84 108H66c0 31 8 55 39 56 18 0 30-7 34-22zm-45-69c5-46-57-63-70-21-2 6-4 13-4 21h74" id="W"/><path d="M135-150c-39-12-60 13-60 57V0H25l-1-190h47c2 13-1 29 3 40 6-28 27-53 61-41v41" id="X"/><path d="M121-226c-27-7-43 5-38 36h38v33H83V0H34v-157H6v-33h28c-9-59 32-81 87-68v32" id="Y"/><path d="M133-34C117-15 103 5 69 4 32 3 11-16 11-54c-1-60 55-63 116-61 1-26-3-47-28-47-18 1-26 9-28 27l-52-2c7-38 36-58 82-57s74 22 75 68l1 82c-1 14 12 18 25 15v27c-30 8-71 5-69-32zm-48 3c29 0 43-24 42-57-32 0-66-3-65 30 0 17 8 27 23 27" id="Z"/><path d="M190-63c-7 42-38 67-86 67-59 0-84-38-90-98-12-110 154-137 174-36l-49 2c-2-19-15-32-35-32-30 0-35 28-38 64-6 74 65 87 74 30" id="aa"/><path d="M15-22v-40l146-57-146-57v-40l181 69v56" id="ab"/><g id="l"><use transform="matrix(0.05,0,0,0.05,0,0)" xlink:href="#S"/><use transform="matrix(0.05,0,0,0.05,10.5,0)" xlink:href="#S"/><use transform="matrix(0.05,0,0,0.05,21,0)" xlink:href="#T"/><use transform="matrix(0.05,0,0,0.05,26,0)" xlink:href="#U"/><use transform="matrix(0.05,0,0,0.05,36.95,0)" xlink:href="#V"/><use transform="matrix(0.05,0,0,0.05,42.900000000000006,0)" xlink:href="#W"/><use transform="matrix(0.05,0,0,0.05,52.900000000000006,0)" xlink:href="#X"/><use transform="matrix(0.05,0,0,0.05,59.900000000000006,0)" xlink:href="#Y"/><use transform="matrix(0.05,0,0,0.05,65.85000000000001,0)" xlink:href="#Z"/><use transform="matrix(0.05,0,0,0.05,75.85000000000001,0)" xlink:href="#aa"/><use transform="matrix(0.05,0,0,0.05,85.85000000000001,0)" xlink:href="#W"/><use transform="matrix(0.05,0,0,0.05,95.85000000000001,0)" xlink:href="#ab"/><use transform="matrix(0.05,0,0,0.05,106.35000000000001,0)" xlink:href="#ab"/></g><path d="M24 0v-248h52v208h133V0H24" id="ac"/><path d="M137-138c1-29-70-34-71-4 15 46 118 7 119 86 1 83-164 76-172 9l43-7c4 19 20 25 44 25 33 8 57-30 24-41C81-84 22-81 20-136c-2-80 154-74 161-7" id="ad"/><g id="m"><use transform="matrix(0.05,0,0,0.05,0,0)" xlink:href="#ac"/><use transform="matrix(0.05,0,0,0.05,10.950000000000001,0)" xlink:href="#T"/><use transform="matrix(0.05,0,0,0.05,15.950000000000001,0)" xlink:href="#ad"/><use transform="matrix(0.05,0,0,0.05,25.950000000000003,0)" xlink:href="#V"/><use transform="matrix(0.05,0,0,0.05,31.900000000000002,0)" xlink:href="#W"/><use transform="matrix(0.05,0,0,0.05,41.900000000000006,0)" xlink:href="#U"/><use transform="matrix(0.05,0,0,0.05,52.85,0)" xlink:href="#W"/><use transform="matrix(0.05,0,0,0.05,62.85,0)" xlink:href="#X"/></g><path d="M205 0l-28-72H64L36 0H1l101-248h38L239 0h-34zm-38-99l-47-123c-12 45-31 82-46 123h93" id="ae"/><g id="n"><use transform="matrix(0.05,0,0,0.05,0,0)" xlink:href="#L"/><use transform="matrix(0.05,0,0,0.05,10.5,0)" xlink:href="#C"/><use transform="matrix(0.05,0,0,0.05,20.5,0)" xlink:href="#z"/><use transform="matrix(0.05,0,0,0.05,30.5,0)" xlink:href="#ae"/><use transform="matrix(0.05,0,0,0.05,42.5,0)" xlink:href="#u"/><use transform="matrix(0.05,0,0,0.05,52.5,0)" xlink:href="#u"/><use transform="matrix(0.05,0,0,0.05,62.5,0)" xlink:href="#G"/><use transform="matrix(0.05,0,0,0.05,72.5,0)" xlink:href="#u"/><use transform="matrix(0.05,0,0,0.05,82.5,0)" xlink:href="#M"/></g><use transform="matrix(0.05,0,0,0.05,0,0)" xlink:href="#N" id="o"/><path d="M230 0l2-204L168 0h-37L68-204 70 0H24v-248h70l56 185 57-185h69V0h-46" id="af"/><path d="M135-194c53 0 70 44 70 98 0 56-19 98-73 100-31 1-45-17-59-34 3 33 2 69 2 105H25l-1-265h48c2 10 0 23 3 31 11-24 29-35 60-35zM114-30c33 0 39-31 40-66 0-38-9-64-40-64-56 0-55 130 0 130" id="ag"/><path d="M76-208v77h127v40H76V0H24v-248h183v40H76" id="ah"/><path d="M195-6C206 82 75 100 31 46c-4-6-6-13-8-21l49-6c3 16 16 24 34 25 40 0 42-37 40-79-11 22-30 35-61 35-53 0-70-43-70-97 0-56 18-96 73-97 30 0 46 14 59 34l2-30h47zm-90-29c32 0 41-27 41-63 0-35-9-62-40-62-32 0-39 29-40 63 0 36 9 62 39 62" id="ai"/><path d="M220-157c-53 9-28 100-34 157h-49v-107c1-27-5-49-29-50C55-147 81-57 75 0H25l-1-190h47c2 12-1 28 3 38 10-53 101-56 108 0 13-22 24-43 59-42 82 1 51 116 57 194h-49v-107c-1-25-5-48-29-50" id="aj"/><g id="p"><use transform="matrix(0.05,0,0,0.05,0,0)" xlink:href="#af"/><use transform="matrix(0.05,0,0,0.05,14.950000000000001,0)" xlink:href="#Z"/><use transform="matrix(0.05,0,0,0.05,24.950000000000003,0)" xlink:href="#ag"/><use transform="matrix(0.05,0,0,0.05,35.900000000000006,0)" xlink:href="#ah"/><use transform="matrix(0.05,0,0,0.05,46.85000000000001,0)" xlink:href="#X"/><use transform="matrix(0.05,0,0,0.05,53.85,0)" xlink:href="#Z"/><use transform="matrix(0.05,0,0,0.05,63.85,0)" xlink:href="#ai"/><use transform="matrix(0.05,0,0,0.05,74.80000000000001,0)" xlink:href="#aj"/><use transform="matrix(0.05,0,0,0.05,90.80000000000001,0)" xlink:href="#W"/><use transform="matrix(0.05,0,0,0.05,100.80000000000001,0)" xlink:href="#U"/><use transform="matrix(0.05,0,0,0.05,111.75,0)" xlink:href="#V"/></g><path d="M186 0v-106H76V0H24v-248h52v99h110v-99h50V0h-50" id="ak"/><path d="M110-194c64 0 96 36 96 99 0 64-35 99-97 99-61 0-95-36-95-99 0-62 34-99 96-99zm-1 164c35 0 45-28 45-65 0-40-10-65-43-65-34 0-45 26-45 65 0 36 10 65 43 65" id="al"/><g id="q"><use transform="matrix(0.05,0,0,0.05,0,0)" xlink:href="#ak"/><use transform="matrix(0.05,0,0,0.05,12.950000000000001,0)" xlink:href="#al"/><use transform="matrix(0.05,0,0,0.05,23.900000000000002,0)" xlink:href="#aj"/><use transform="matrix(0.05,0,0,0.05,39.900000000000006,0)" xlink:href="#W"/><use transform="matrix(0.05,0,0,0.05,49.900000000000006,0)" xlink:href="#ah"/><use transform="matrix(0.05,0,0,0.05,60.85,0)" xlink:href="#X"/><use transform="matrix(0.05,0,0,0.05,67.85000000000001,0)" xlink:href="#Z"/><use transform="matrix(0.05,0,0,0.05,77.85000000000001,0)" xlink:href="#ai"/><use transform="matrix(0.05,0,0,0.05,88.80000000000001,0)" xlink:href="#aj"/><use transform="matrix(0.05,0,0,0.05,104.80000000000001,0)" xlink:href="#W"/><use transform="matrix(0.05,0,0,0.05,114.80000000000001,0)" xlink:href="#U"/><use transform="matrix(0.05,0,0,0.05,125.75,0)" xlink:href="#V"/></g></defs></g></svg>