<svg xmlns="http://www.w3.org/2000/svg" xmlns:xlink="http://www.w3.org/1999/xlink" xmlns:lucid="lucid" width="900.05" height="721.92"><g transform="translate(-168.66666666666669 -384.4365913746213)" lucid:page-tab-id="0_0"><path d="M0 0h1870.4v1323.2H0z" fill="#fff"/><path d="M497.4 404.44h240v60h-240z" fill="none"/><use xlink:href="#a" transform="matrix(1,0,0,1,497.4004273213234,404.4365913746213) translate(38.099999999999994 33.6)"/><use xlink:href="#b" transform="matrix(1,0,0,1,497.4004273213234,404.4365913746213) translate(75.1 33.6)"/><use xlink:href="#c" transform="matrix(1,0,0,1,497.4004273213234,404.4365913746213) translate(145 33.6)"/><path d="M248.08 554.08c0 10.73-8.7 19.42-19.4 19.42-10.74 0-19.43-8.7-19.43-19.42 0-10.72 8.7-19.4 19.42-19.4 10.72 0 19.4 8.68 19.4 19.4z" stroke="#000" stroke-width="2" fill="#fff"/><path d="M228.67 573.5v54.37l40 62.13m-40-62.13l-40 62.13m0-97.08h80" stroke="#000" stroke-width="2" fill="none"/><path d="M188.67 534.67h80V712h-80z" fill="none"/><use xlink:href="#d" transform="matrix(1,0,0,1,108.66666666666669,690.0000000000775) translate(101.05 14.6)"/><path d="M457.4 464.44h319.25v621.92H457.4z" stroke="#000" stroke-width="2" fill-opacity="0"/><path d="M697.4 564.43c0 33.13-35.82 60-80 60s-80-26.87-80-60c0-33.14 35.82-60 80-60s80 26.86 80 60z" stroke="#000" stroke-width="2" fill="#fff"/><use xlink:href="#e" transform="matrix(1,0,0,1,537.4004273213234,504.42745709760936) translate(26.555 63.15)"/><use xlink:href="#f" transform="matrix(1,0,0,1,537.4004273213234,504.42745709760936) translate(31.555 63.15)"/><use xlink:href="#g" transform="matrix(1,0,0,1,537.4004273213234,504.42745709760936) translate(68.555 63.15)"/><path d="M697.03 753.08c0 33.13-35.82 60-80 60-44.2 0-80-26.87-80-60 0-33.14 35.8-60 80-60 44.18 0 80 26.86 80 60z" stroke="#000" stroke-width="2" fill="#fff"/><use xlink:href="#h" transform="matrix(1,0,0,1,537.0273237015779,693.0757395299279) translate(18.604999999999997 51.9)"/><use xlink:href="#i" transform="matrix(1,0,0,1,537.0273237015779,693.0757395299279) translate(75.555 51.9)"/><use xlink:href="#j" transform="matrix(1,0,0,1,537.0273237015779,693.0757395299279) translate(52.57999999999999 73.5)"/><path d="M697.4 941.72c0 33.14-35.82 60-80 60s-80-26.86-80-60c0-33.13 35.82-60 80-60s80 26.87 80 60z" stroke="#000" stroke-width="2" fill="#fff"/><use xlink:href="#k" transform="matrix(1,0,0,1,537.4004273213234,881.7240219622464) translate(38.029999999999994 63.15)"/><use xlink:href="#l" transform="matrix(1,0,0,1,537.4004273213234,881.7240219622464) translate(84.03 63.15)"/><path d="M699.4 941.4l187.3.32" stroke="#000" stroke-width="2" fill="none"/><path d="M699.43 940.4v2h-1.05l.02-.66v-.42l-.04-.92zM887.7 940.72v2h-1.02v-2z"/><path d="M269.66 593.5l265.75-28.96" stroke="#000" stroke-width="2" fill="none"/><path d="M269.8 594.5l-4 .43-.12-1h3v-1.33l.9-.1zM536.4 564.4v.43l.03.6-.94.1-.23-2 1.16-.1z"/><path d="M269.53 594.12l265.64 158.44" stroke="#000" stroke-width="2" fill="none"/><path d="M270.06 593.28l-1.02 1.7-1.8-1.06h1.43v-1.48zm-3.88-1.36l.42-.7 1.18.7zM536.06 751.93l-.03 1.13v.42l.03.78-1.43-.85 1.03-1.7z"/><path d="M888.7 901.72h160v80h-160z" stroke="#000" stroke-width="2" fill="#fff"/><g><use xlink:href="#m" transform="matrix(1,0,0,1,888.7117502013562,901.7240219622464) translate(80.00500000000001 21.9)"/><use xlink:href="#n" transform="matrix(1,0,0,1,888.7117502013562,901.7240219622464) translate(41.529999999999994 43.5)"/><use xlink:href="#o" transform="matrix(1,0,0,1,888.7117502013562,901.7240219622464) translate(80.00500000000001 65.10000000000001)"/></g><path d="M269.28 594.4l266.5 346.53" stroke="#000" stroke-width="2" fill="none"/><path d="M270.08 593.8l-1.58 1.23-.86-1.1h1.03v-1.96zm-3.98-1.88l-.05-.08 1.58-1.22 1 1.3zM536.4 941.7v.43l.05 1.3-1.47-1.9 1.46-1.13z"/><defs><path d="M205 0l-28-72H64L36 0H1l101-248h38L239 0h-34zm-38-99l-47-123c-12 45-31 82-46 123h93" id="p"/><path d="M85-194c31 0 48 13 60 33l-1-100h32l1 261h-30c-2-10 0-23-3-31C134-8 116 4 85 4 32 4 16-35 15-94c0-66 23-100 70-100zm9 24c-40 0-46 34-46 75 0 40 6 74 45 74 42 0 51-32 51-76 0-42-9-74-50-73" id="q"/><g id="a"><use transform="matrix(0.05,0,0,0.05,0,0)" xlink:href="#p"/><use transform="matrix(0.05,0,0,0.05,12,0)" xlink:href="#q"/><use transform="matrix(0.05,0,0,0.05,22,0)" xlink:href="#q"/></g><path d="M185-189c-5-48-123-54-124 2 14 75 158 14 163 119 3 78-121 87-175 55-17-10-28-26-33-46l33-7c5 56 141 63 141-1 0-78-155-14-162-118-5-82 145-84 179-34 5 7 8 16 11 25" id="r"/><path d="M24-231v-30h32v30H24zM24 0v-190h32V0H24" id="s"/><path d="M177-190C167-65 218 103 67 71c-23-6-38-20-44-43l32-5c15 47 100 32 89-28v-30C133-14 115 1 83 1 29 1 15-40 15-95c0-56 16-97 71-98 29-1 48 16 59 35 1-10 0-23 2-32h30zM94-22c36 0 50-32 50-73 0-42-14-75-50-75-39 0-46 34-46 75s6 73 46 73" id="t"/><path d="M106-169C34-169 62-67 57 0H25v-261h32l-1 103c12-21 28-36 61-36 89 0 53 116 60 194h-32v-121c2-32-8-49-39-48" id="u"/><path d="M59-47c-2 24 18 29 38 22v24C64 9 27 4 27-40v-127H5v-23h24l9-43h21v43h35v23H59v120" id="v"/><path d="M117-194c89-4 53 116 60 194h-32v-121c0-31-8-49-39-48C34-167 62-67 57 0H25l-1-190h30c1 10-1 24 2 32 11-22 29-35 61-36" id="w"/><g id="b"><use transform="matrix(0.05,0,0,0.05,0,0)" xlink:href="#r"/><use transform="matrix(0.05,0,0,0.05,12,0)" xlink:href="#s"/><use transform="matrix(0.05,0,0,0.05,15.949999999999998,0)" xlink:href="#t"/><use transform="matrix(0.05,0,0,0.05,25.950000000000003,0)" xlink:href="#u"/><use transform="matrix(0.05,0,0,0.05,35.95,0)" xlink:href="#v"/><use transform="matrix(0.05,0,0,0.05,40.95,0)" xlink:href="#s"/><use transform="matrix(0.05,0,0,0.05,44.900000000000006,0)" xlink:href="#w"/><use transform="matrix(0.05,0,0,0.05,54.900000000000006,0)" xlink:href="#t"/></g><path d="M96-169c-40 0-48 33-48 73s9 75 48 75c24 0 41-14 43-38l32 2c-6 37-31 61-74 61-59 0-76-41-82-99-10-93 101-131 147-64 4 7 5 14 7 22l-32 3c-4-21-16-35-41-35" id="x"/><path d="M108 0H70L1-190h34L89-25l56-165h34" id="y"/><path d="M179-190L93 31C79 59 56 82 12 73V49c39 6 53-20 64-50L1-190h34L92-34l54-156h33" id="z"/><g id="c"><use transform="matrix(0.05,0,0,0.05,0,0)" xlink:href="#p"/><use transform="matrix(0.05,0,0,0.05,12,0)" xlink:href="#x"/><use transform="matrix(0.05,0,0,0.05,21,0)" xlink:href="#v"/><use transform="matrix(0.05,0,0,0.05,26,0)" xlink:href="#s"/><use transform="matrix(0.05,0,0,0.05,29.950000000000003,0)" xlink:href="#y"/><use transform="matrix(0.05,0,0,0.05,38.95,0)" xlink:href="#s"/><use transform="matrix(0.05,0,0,0.05,42.900000000000006,0)" xlink:href="#v"/><use transform="matrix(0.05,0,0,0.05,47.900000000000006,0)" xlink:href="#z"/></g><path d="M232-93c-1 65-40 97-104 97C67 4 28-28 28-90v-158h33c8 89-33 224 67 224 102 0 64-133 71-224h33v155" id="A"/><path d="M135-143c-3-34-86-38-87 0 15 53 115 12 119 90S17 21 10-45l28-5c4 36 97 45 98 0-10-56-113-15-118-90-4-57 82-63 122-42 12 7 21 19 24 35" id="B"/><path d="M100-194c63 0 86 42 84 106H49c0 40 14 67 53 68 26 1 43-12 49-29l28 8c-11 28-37 45-77 45C44 4 14-33 15-96c1-61 26-98 85-98zm52 81c6-60-76-77-97-28-3 7-6 17-6 28h103" id="C"/><path d="M114-163C36-179 61-72 57 0H25l-1-190h30c1 12-1 29 2 39 6-27 23-49 58-41v29" id="D"/><g id="d"><use transform="matrix(0.05,0,0,0.05,0,0)" xlink:href="#A"/><use transform="matrix(0.05,0,0,0.05,12.950000000000001,0)" xlink:href="#B"/><use transform="matrix(0.05,0,0,0.05,21.950000000000003,0)" xlink:href="#C"/><use transform="matrix(0.05,0,0,0.05,31.950000000000003,0)" xlink:href="#D"/></g><g id="f"><use transform="matrix(0.05,0,0,0.05,0,0)" xlink:href="#p"/><use transform="matrix(0.05,0,0,0.05,12,0)" xlink:href="#q"/><use transform="matrix(0.05,0,0,0.05,22,0)" xlink:href="#q"/></g><g id="g"><use transform="matrix(0.05,0,0,0.05,0,0)" xlink:href="#r"/><use transform="matrix(0.05,0,0,0.05,12,0)" xlink:href="#s"/><use transform="matrix(0.05,0,0,0.05,15.949999999999998,0)" xlink:href="#t"/><use transform="matrix(0.05,0,0,0.05,25.950000000000003,0)" xlink:href="#u"/><use transform="matrix(0.05,0,0,0.05,35.95,0)" xlink:href="#v"/><use transform="matrix(0.05,0,0,0.05,40.95,0)" xlink:href="#s"/><use transform="matrix(0.05,0,0,0.05,44.900000000000006,0)" xlink:href="#w"/><use transform="matrix(0.05,0,0,0.05,54.900000000000006,0)" xlink:href="#t"/></g><path d="M30 0v-248h187v28H63v79h144v27H63v87h162V0H30" id="E"/><g id="h"><use transform="matrix(0.05,0,0,0.05,0,0)" xlink:href="#E"/><use transform="matrix(0.05,0,0,0.05,12,0)" xlink:href="#w"/><use transform="matrix(0.05,0,0,0.05,22,0)" xlink:href="#v"/><use transform="matrix(0.05,0,0,0.05,27,0)" xlink:href="#C"/><use transform="matrix(0.05,0,0,0.05,37,0)" xlink:href="#D"/><use transform="matrix(0.05,0,0,0.05,42.95,0)" xlink:href="#B"/></g><path d="M145-31C134-9 116 4 85 4 32 4 16-35 15-94c0-59 17-99 70-100 32-1 48 14 60 33 0-11-1-24 2-32h30l-1 268h-32zM93-21c41 0 51-33 51-76s-8-73-50-73c-40 0-46 35-46 75s5 74 45 74" id="F"/><path d="M84 4C-5 8 30-112 23-190h32v120c0 31 7 50 39 49 72-2 45-101 50-169h31l1 190h-30c-1-10 1-25-2-33-11 22-28 36-60 37" id="G"/><g id="i"><use transform="matrix(0.05,0,0,0.05,0,0)" xlink:href="#D"/><use transform="matrix(0.05,0,0,0.05,5.95,0)" xlink:href="#C"/><use transform="matrix(0.05,0,0,0.05,15.949999999999998,0)" xlink:href="#F"/><use transform="matrix(0.05,0,0,0.05,25.950000000000003,0)" xlink:href="#G"/><use transform="matrix(0.05,0,0,0.05,35.95,0)" xlink:href="#s"/><use transform="matrix(0.05,0,0,0.05,39.900000000000006,0)" xlink:href="#D"/><use transform="matrix(0.05,0,0,0.05,45.85000000000001,0)" xlink:href="#C"/><use transform="matrix(0.05,0,0,0.05,55.85,0)" xlink:href="#q"/></g><path d="M30-248c118-7 216 8 213 122C240-48 200 0 122 0H30v-248zM63-27c89 8 146-16 146-99s-60-101-146-95v194" id="H"/><path d="M141-36C126-15 110 5 73 4 37 3 15-17 15-53c-1-64 63-63 125-63 3-35-9-54-41-54-24 1-41 7-42 31l-33-3c5-37 33-52 76-52 45 0 72 20 72 64v82c-1 20 7 32 28 27v20c-31 9-61-2-59-35zM48-53c0 20 12 33 32 33 41-3 63-29 60-74-43 2-92-5-92 41" id="I"/><path d="M24 0v-261h32V0H24" id="J"/><g id="j"><use transform="matrix(0.05,0,0,0.05,0,0)" xlink:href="#H"/><use transform="matrix(0.05,0,0,0.05,12.950000000000001,0)" xlink:href="#C"/><use transform="matrix(0.05,0,0,0.05,22.950000000000003,0)" xlink:href="#v"/><use transform="matrix(0.05,0,0,0.05,27.950000000000003,0)" xlink:href="#I"/><use transform="matrix(0.05,0,0,0.05,37.95,0)" xlink:href="#s"/><use transform="matrix(0.05,0,0,0.05,41.900000000000006,0)" xlink:href="#J"/><use transform="matrix(0.05,0,0,0.05,45.85000000000001,0)" xlink:href="#B"/></g><g id="k"><use transform="matrix(0.05,0,0,0.05,0,0)" xlink:href="#r"/><use transform="matrix(0.05,0,0,0.05,12,0)" xlink:href="#I"/><use transform="matrix(0.05,0,0,0.05,22,0)" xlink:href="#y"/><use transform="matrix(0.05,0,0,0.05,31,0)" xlink:href="#C"/></g><g id="l"><use transform="matrix(0.05,0,0,0.05,0,0)" xlink:href="#H"/><use transform="matrix(0.05,0,0,0.05,12.950000000000001,0)" xlink:href="#I"/><use transform="matrix(0.05,0,0,0.05,22.950000000000003,0)" xlink:href="#v"/><use transform="matrix(0.05,0,0,0.05,27.950000000000003,0)" xlink:href="#I"/></g><path d="M115-194c53 0 69 39 70 98 0 66-23 100-70 100C84 3 66-7 56-30L54 0H23l1-261h32v101c10-23 28-34 59-34zm-8 174c40 0 45-34 45-75 0-40-5-75-45-74-42 0-51 32-51 76 0 43 10 73 51 73" id="K"/><g id="n"><use transform="matrix(0.05,0,0,0.05,0,0)" xlink:href="#H"/><use transform="matrix(0.05,0,0,0.05,12.950000000000001,0)" xlink:href="#I"/><use transform="matrix(0.05,0,0,0.05,22.950000000000003,0)" xlink:href="#v"/><use transform="matrix(0.05,0,0,0.05,27.950000000000003,0)" xlink:href="#I"/><use transform="matrix(0.05,0,0,0.05,37.95,0)" xlink:href="#K"/><use transform="matrix(0.05,0,0,0.05,47.95,0)" xlink:href="#I"/><use transform="matrix(0.05,0,0,0.05,57.95,0)" xlink:href="#B"/><use transform="matrix(0.05,0,0,0.05,66.95,0)" xlink:href="#C"/></g></defs></g></svg>